<svg id="Layer_1" data-name="Layer 1" xmlns="http://www.w3.org/2000/svg" viewBox="0 0 85.98 110.74"><defs><style>.cls-1{fill:#f5f4f3;}.cls-2{fill:#df4791;}.cls-3{fill:#f4ebc2;}.cls-4{fill:#e8be90;}.cls-5{fill:#d16c7c;}.cls-6{fill:#fadba9;}.cls-7{fill:#cca172;}.cls-8{fill:#cd8564;}.cls-9{fill:#ca3e76;}.cls-10{fill:#908d8d;}.cls-11{fill:#0f0c0b;}.cls-12{fill:#1b1412;}.cls-13{fill:#4f0d2d;}.cls-14{fill:#312121;}.cls-15{fill:#493d2a;}</style></defs><title>logo</title><path class="cls-1" d="M319.59,250a14.7,14.7,0,0,1,4.7,2.72,20.83,20.83,0,0,0,2.52,1.4,40.74,40.74,0,0,1,9.55,9.66A58.72,58.72,0,0,1,347,290.23a82.8,82.8,0,0,1-.37,24.8A46.12,46.12,0,0,1,343,328c-2.19,4.57-4.52,9-7.92,12.88-1,1.17-2,2.45-3,3.66-.36.42-.67,1-1.33,1a10,10,0,0,1,1.73-3.5c.62-1,.52-1.5-.49-2a18.4,18.4,0,0,0-2.7-1.25c-.45-.13.07-.2.13-.31a4.19,4.19,0,0,1,1.87.13,1.26,1.26,0,0,0,1.62-.59c.88-1.34,1.71-2.71,2.58-4.1a12.07,12.07,0,0,0-4.78-.73c-2-.06-4-.08-6-.11.07-.86-.73-1.36-.89-2.11s-.28-1.6-1.35-1.82c-.46-.09-.28-.7-.33-1.09,4.27-.15,8.55-.18,12.82-.15,1.16,0,2.32-.11,3.48-.15a.89.89,0,0,0,.91-.68c.66-1.67,1.51-3.26,2.08-5,2.23-6.64,2.76-13.54,2.75-20.47a79.74,79.74,0,0,0-.81-11c-.26-1.94-.76-3.82-1.07-5.75A40.51,40.51,0,0,0,341,280.7a39.65,39.65,0,0,0-2.56-6.79,56.24,56.24,0,0,0-10.05-14.32,1.51,1.51,0,0,0-.49-1.42c-1-.88-1.68-2.16-2.87-2.64a19.22,19.22,0,0,1-3-1.72,1.76,1.76,0,0,1-.93-1.54,1.73,1.73,0,0,0-1.28-1.78c-.21-.06-.26-.31-.32-.51Z" transform="translate(-261.75 -246.51)"/><path class="cls-2" d="M275.81,342.56a38.61,38.61,0,0,1-6.16-9,62.26,62.26,0,0,1-4.36-9.85A80.93,80.93,0,0,1,262,293.81a59,59,0,0,1,3.06-15.18A54.86,54.86,0,0,1,275,260.89a15.3,15.3,0,0,1,2.32-2.37c1.75,0,1.75,0,2.1,1.65h0a.43.43,0,0,0-.4.29c-.45.58-.86,1.19-1.36,1.72a47.79,47.79,0,0,0-10.49,19,59.62,59.62,0,0,0-2.39,17.21,47.87,47.87,0,0,0,1,13.4c0,.13.05.2.17.2-.27.27-.16.51.06.74a7,7,0,0,0,.5,2.67.31.31,0,0,0,.14.4,8.9,8.9,0,0,0,.62,2.79s-.07.07-.06.09a.7.7,0,0,0,.13.17,1.71,1.71,0,0,0,.25,1s-.07.08-.06.1a1.3,1.3,0,0,0,.11.19l.12.62a.6.6,0,0,0,.2.65,19.9,19.9,0,0,0,2.05,5.79A2.54,2.54,0,0,0,271,328.3a3,3,0,0,0,.2.9c.86,1.52,1.76,3,2.64,4.52.27.45.51.93.81,1.36.93,1.33,1.65,2.84,3.08,3.77.61,1.19,1.79,1.86,2.62,2.86l1.25,1.51c0,.19.1.28.29.29l0,0a.24.24,0,0,0,.28.28l0,0a.24.24,0,0,0,.28.26l.05.05c0,.18.08.27.27.26l.06.06q0,.28.27.24l.06.07a7.44,7.44,0,0,0-.09,3.54h-.68a4.15,4.15,0,0,0-3.28-2.31l-.1-.09c.07-.35-.15-.41-.42-.42l0,0a.32.32,0,0,0-.31-.29l0,0a.31.31,0,0,0-.3-.3l0,0a.55.55,0,0,0-.61-.62h0a.32.32,0,0,0-.29-.31l0,0c0-.27-.07-.49-.42-.43l-.08-.09C276.57,342.87,276.42,342.52,275.81,342.56Z" transform="translate(-261.75 -246.51)"/><path class="cls-3" d="M329.42,338.5c-.06.11-.58.18-.13.31a18.4,18.4,0,0,1,2.7,1.25c1,.47,1.11,1,.49,2a10,10,0,0,0-1.73,3.5v0l-.34.35,0,0-.35.34,0,0-.35.34a.3.3,0,0,1-.3.29,1.28,1.28,0,0,0-1.29,1.28,26,26,0,0,1-6.83,4.68,2.12,2.12,0,0,1-.77.09c-.06-.5,0-1.16.5-1.18,1.71-.07,2.16-1.74,3.34-2.46a.41.41,0,0,0,.12-.56.54.54,0,0,0-.54-.25,2.22,2.22,0,0,0-1.52.76,2.26,2.26,0,0,1-2.11.8,2.56,2.56,0,0,0-2,.48,2.76,2.76,0,0,1-1.94.49,6.18,6.18,0,0,1,1-.71,32.26,32.26,0,0,0,9-6.39c.42-.42,1.28-.73,1-1.43s-1.13-.67-1.83-.7l-1.43,0c-2.69-.09-5.38-.2-8.07-.3-.17-1.55-.66-2-2.31-2.2a52.93,52.93,0,0,0-7.55-.32h-.64a2.43,2.43,0,0,0,0-.27c.15,0,.31-.06.46-.07,6.84-.07,13.67-.16,20.51-.22A8.6,8.6,0,0,1,329.42,338.5Zm-4.37.17a5.73,5.73,0,0,0,2.44,0A5.58,5.58,0,0,0,325.05,338.67Z" transform="translate(-261.75 -246.51)"/><path class="cls-4" d="M306.28,357.2a28,28,0,0,1-6.34-.33c.43-.52,1.24-.53,1.58-1.2s.33-1.06-.51-1.33l-1.61-.5,1.53-.14a32.43,32.43,0,0,0,12.64-1.44c.29.12.58.21.86.34,1.24.57,1.3,1.06.36,2.07a2.44,2.44,0,0,1-1.31.74,20.11,20.11,0,0,0-3,.94c-.28.11.18.17.27.28a1.23,1.23,0,0,1-1,.23,2.21,2.21,0,0,0-2.2,0,.58.58,0,0,0,0,.26l-.93.08C306.48,357,306.38,357.06,306.28,357.2Z" transform="translate(-261.75 -246.51)"/><path class="cls-5" d="M295.43,355.76a31.84,31.84,0,0,1-8.73-3.9,25.91,25.91,0,0,1-3.53-2.37l.27-.21c.71.08,1.53-.21,2.1.42s1.34.57,2,.8.93,0,.76-.72c-.1-.42.3-.47.6-.56a67.91,67.91,0,0,0,6.58,3.23C295.58,353.55,295.13,354.65,295.43,355.76Z" transform="translate(-261.75 -246.51)"/><path class="cls-5" d="M279.37,260.18c-.35-1.63-.35-1.63-2.1-1.66a30.83,30.83,0,0,1,7.39-6.07c.28,0,.5,0,.58-.35h0a.3.3,0,0,0,.33-.23l.06,0c1.17.17,2-1,3.32-.82a10.1,10.1,0,0,1-.79,2.42c-.31.2-.6.42-.91.61a34.12,34.12,0,0,0-7,5.35A2.46,2.46,0,0,1,279.37,260.18Z" transform="translate(-261.75 -246.51)"/><path class="cls-6" d="M310.78,356.63c-.09-.11-.55-.17-.27-.28a20.11,20.11,0,0,1,3-.94,2.44,2.44,0,0,0,1.31-.74c.94-1,.88-1.5-.36-2.07-.28-.13-.57-.22-.86-.34l2.91-1.35a2.76,2.76,0,0,0,1.94-.49,2.56,2.56,0,0,1,2-.48,2.26,2.26,0,0,0,2.11-.8,2.22,2.22,0,0,1,1.52-.76.54.54,0,0,1,.54.25.41.41,0,0,1-.12.56c-1.18.72-1.63,2.39-3.34,2.46-.53,0-.56.68-.5,1.18l0,0-.37.28-.12,0H320l-.39.29-.12,0h-.14a.85.85,0,0,0-1,.71A19.7,19.7,0,0,1,310.78,356.63Z" transform="translate(-261.75 -246.51)"/><path class="cls-7" d="M293.59,248.18a26.23,26.23,0,0,1,8.87-1.4c.47.49,1.1.19,1.63.34s1.48.07,1.49.84c0,1,.8,1.11,1.34,1.52a41.72,41.72,0,0,0-10.16.68c.11-1.7,0-1.77-1.52-1.81A3,3,0,0,1,293.59,248.18Z" transform="translate(-261.75 -246.51)"/><path class="cls-8" d="M293.59,248.18a3,3,0,0,0,1.65.17c1.56,0,1.63.11,1.52,1.81a30.49,30.49,0,0,0-5.2,1.64l-3.37,1.62A10.1,10.1,0,0,0,289,251c-1.28-.16-2.15,1-3.32.82A27.58,27.58,0,0,1,293.59,248.18Z" transform="translate(-261.75 -246.51)"/><path class="cls-4" d="M306.92,249.48c-.54-.41-1.32-.5-1.34-1.52,0-.77-.92-.68-1.49-.84s-1.16.15-1.63-.34l1-.06a5,5,0,0,0,2.25,0l1.25.08a3.78,3.78,0,0,0,2.3.24,3.65,3.65,0,0,1,1.84.35c-.09.15-.1.33.1.34,1.17.1,2.12.86,3.26,1a.6.6,0,0,1,.57.46c.05.34-.24.4-.51.44a.86.86,0,0,0-.88.89c-1.11-.26-2.22-.58-3.34-.77-.68-.11-1.36-.53-2.09-.18Z" transform="translate(-261.75 -246.51)"/><path class="cls-7" d="M300.93,353.7l-1.53.14,1.61.5c.84.27.92.55.51,1.33s-1.15.68-1.58,1.2a10.33,10.33,0,0,1-3.58-.83c1.64-.26,2.07-1.07,1.32-2.5-.1-.18-.18-.37-.27-.55A30.47,30.47,0,0,1,300.93,353.7Z" transform="translate(-261.75 -246.51)"/><path class="cls-6" d="M313.6,250.53a.86.86,0,0,1,.88-.89c.27,0,.56-.1.51-.44a.6.6,0,0,0-.57-.46c-1.14-.16-2.09-.92-3.26-1-.2,0-.19-.19-.1-.34a18.41,18.41,0,0,1,6,1.63l.4.3,0,0a.89.89,0,0,0,1,.65l.26,0c0,.4.08.92-.62.76-.51-.11-1-.26-1.52-.38s-.95,0-1.05.59l-.84-.05Z" transform="translate(-261.75 -246.51)"/><path class="cls-8" d="M297.41,353c.09.18.17.37.27.55.75,1.43.32,2.24-1.32,2.5a1.21,1.21,0,0,1-.93-.28c-.3-1.11.15-2.21.07-3.31A6.05,6.05,0,0,1,297.41,353Z" transform="translate(-261.75 -246.51)"/><path class="cls-9" d="M279.18,346a4.15,4.15,0,0,1,3.28,2.31c0,.17,0,.33-.08.5A17.48,17.48,0,0,1,279.18,346Z" transform="translate(-261.75 -246.51)"/><path class="cls-1" d="M328.19,348.06a1.28,1.28,0,0,1,1.29-1.28A2.81,2.81,0,0,1,328.19,348.06Z" transform="translate(-261.75 -246.51)"/><path class="cls-10" d="M309.22,247a3.78,3.78,0,0,1-2.3-.24A3.93,3.93,0,0,1,309.22,247Z" transform="translate(-261.75 -246.51)"/><path class="cls-5" d="M282.38,348.84c0-.17.05-.33.08-.5h.68c.31.24.28.6.3.94l-.27.21Z" transform="translate(-261.75 -246.51)"/><path class="cls-10" d="M305.67,246.71a5,5,0,0,1-2.25,0A3.12,3.12,0,0,1,305.67,246.71Z" transform="translate(-261.75 -246.51)"/><path class="cls-6" d="M307.55,356.84a2.21,2.21,0,0,1,2.2,0l-.63.06Z" transform="translate(-261.75 -246.51)"/><path class="cls-3" d="M318.35,354.15a.85.85,0,0,1,1-.71A1.06,1.06,0,0,1,318.35,354.15Z" transform="translate(-261.75 -246.51)"/><path class="cls-7" d="M307.55,356.84l1.57.08a3.77,3.77,0,0,1-1.6.18A.58.58,0,0,1,307.55,356.84Z" transform="translate(-261.75 -246.51)"/><path class="cls-3" d="M318.37,249.94a.89.89,0,0,1-1-.65c.34.06.78-.17,1,.33C318.36,249.73,318.37,249.83,318.37,249.94Z" transform="translate(-261.75 -246.51)"/><path class="cls-9" d="M275.81,342.56c.61,0,.76.31.74.83A1.58,1.58,0,0,1,275.81,342.56Z" transform="translate(-261.75 -246.51)"/><path class="cls-1" d="M318.37,249.94c0-.11,0-.21,0-.32a1.78,1.78,0,0,1,1.24.36h-1Z" transform="translate(-261.75 -246.51)"/><path class="cls-9" d="M277.38,344.25a.55.55,0,0,1,.61.62A.9.9,0,0,1,277.38,344.25Z" transform="translate(-261.75 -246.51)"/><path class="cls-3" d="M320.24,353.09l.37-.28C320.53,353,320.55,353.24,320.24,353.09Z" transform="translate(-261.75 -246.51)"/><path class="cls-3" d="M319.6,353.41l.39-.29C319.9,353.27,319.92,353.57,319.6,353.41Z" transform="translate(-261.75 -246.51)"/><path class="cls-8" d="M285.24,252.1c-.08.31-.3.37-.58.35A.63.63,0,0,1,285.24,252.1Z" transform="translate(-261.75 -246.51)"/><path class="cls-9" d="M278.66,345.52c.27,0,.49.07.42.42C278.87,345.87,278.69,345.76,278.66,345.52Z" transform="translate(-261.75 -246.51)"/><path class="cls-9" d="M276.63,343.48c.35-.06.41.16.42.43A.53.53,0,0,1,276.63,343.48Z" transform="translate(-261.75 -246.51)"/><path class="cls-9" d="M277.07,343.93a.32.32,0,0,1,.29.31A.31.31,0,0,1,277.07,343.93Z" transform="translate(-261.75 -246.51)"/><path class="cls-9" d="M278,344.89a.31.31,0,0,1,.3.3A.31.31,0,0,1,278,344.89Z" transform="translate(-261.75 -246.51)"/><path class="cls-9" d="M278.33,345.21a.32.32,0,0,1,.31.29A.3.3,0,0,1,278.33,345.21Z" transform="translate(-261.75 -246.51)"/><path class="cls-1" d="M329.78,346.49l.35-.34A.48.48,0,0,1,329.78,346.49Z" transform="translate(-261.75 -246.51)"/><path class="cls-8" d="M285.6,251.86a.3.3,0,0,1-.33.23A.29.29,0,0,1,285.6,251.86Z" transform="translate(-261.75 -246.51)"/><path class="cls-7" d="M306.28,357.2c.1-.14.2-.16.31,0Z" transform="translate(-261.75 -246.51)"/><path class="cls-1" d="M330.42,345.86l.34-.35A.47.47,0,0,1,330.42,345.86Z" transform="translate(-261.75 -246.51)"/><path class="cls-3" d="M317.42,249.31l-.4-.3C317.26,249,317.36,249.12,317.42,249.31Z" transform="translate(-261.75 -246.51)"/><path class="cls-1" d="M330.1,346.17l.35-.34A.48.48,0,0,1,330.1,346.17Z" transform="translate(-261.75 -246.51)"/><path class="cls-11" d="M306.92,249.48l1.25.1,6.4,1.57a22.32,22.32,0,0,0,3.43,1.33l.05,0a4.5,4.5,0,0,0,1.86.94,60.07,60.07,0,0,1,8.52,6.15,56.24,56.24,0,0,1,10.05,14.32A39.65,39.65,0,0,1,341,280.7a40.51,40.51,0,0,1,1.27,4.22c.31,1.93.81,3.81,1.07,5.75a79.74,79.74,0,0,1,.81,11c0,6.93-.52,13.83-2.75,20.47-.57,1.69-1.42,3.28-2.08,5a.89.89,0,0,1-.91.68c-1.16,0-2.32.16-3.48.15-4.27,0-8.55,0-12.82.15a12.78,12.78,0,0,0-2.9,0,53.83,53.83,0,0,0-5.39,0c-2.57-.13-5.13,0-7.69.05-4-.13-7.94-.09-11.9,0-4.37-.14-8.74-.07-13.11,0a7.31,7.31,0,0,0-.92.14H271a2.54,2.54,0,0,1-1.07-1.13,19.9,19.9,0,0,1-2.05-5.79.56.56,0,0,0-.2-.65l-.12-.62s0-.08,0-.1a1.08,1.08,0,0,0-.08-.19,1.71,1.71,0,0,1-.25-1,.21.21,0,0,0-.07-.26,8.9,8.9,0,0,1-.62-2.79l-.14-.4a7,7,0,0,1-.5-2.67l-.06-.74c-.12,0-.18-.07-.17-.2A1.38,1.38,0,0,1,267,312.9c.09.39.3.8.83.82a1,1,0,0,0,1.06-.78,5.15,5.15,0,0,1,1.24-1.62,1.41,1.41,0,0,0,.58-1.07c0-.1,0-.2,0-.3,1-.24,1.29-1.08,1.56-1.92a7.31,7.31,0,0,1,1.33-2.25c1.06-1.46,2.09-2.94,3.13-4.41.54-.15.59-1,1.25-.95l.92.13c-1.17,1.94-2.5,3.77-3.83,5.6l-.25.31a3.7,3.7,0,0,1-.82,1.34,58.44,58.44,0,0,0-4.14,6.93,5.08,5.08,0,0,0-.7,1.76c-.09.7.33,1,.95.72a4.59,4.59,0,0,0,.85-.69,22.12,22.12,0,0,0,2.93-3.33c2.11-2.91,3.9-6,5.72-9.12a2.26,2.26,0,0,1,.74-1c.43.16.61.57.85.9,1.2,1.73,2.36,3.49,3.59,5.2a61.86,61.86,0,0,0,5.8,7.51c.35.51.59.16.84-.11,1.32-1.48,2.36-3.16,3.55-4.73a9.82,9.82,0,0,0,1.78-2.37c.38-.21.5-.65.73-1,1.68-2.23,3.4-4.43,4.86-6.81l.15-.26,0,0c.32-.13.25-.45.33-.7l-.05.05c.18-.05.34-.13.38-.34l0,0a2,2,0,0,0,.66-1l0,0a30.64,30.64,0,0,0,2.84-4.2.62.62,0,0,1,.9,0,.44.44,0,0,0,.3.37h0a14.31,14.31,0,0,0,1.69,2.46c2.08,2.84,4.31,5.57,6.22,8.53,2.71,4.19,5.68,8.19,8.65,12.19.45.94.86,1.89,1.35,2.81s.47,2.11,1.53,3.06c-.26-2-1.28-3.4-1.91-5a.64.64,0,0,0,.58-.28c.65,1.05,1.3,2.09,1.94,3.14a.89.89,0,0,0,.84.54q3.48,0,7,0c.72,0,1-.34,1.12-1a31.75,31.75,0,0,0,.4-3.76c.13-1.13.11-1.14-1-1.14-2.74,0-5.49,0-8.23,0-.49,0-1.06.21-1.46-.31a5.54,5.54,0,0,0,.37-2.48c-.05-.77.26-1,1-1,2.37.05,4.75,0,7.12,0s2.39,0,2.16-2.43c-.07-.71-.36-.86-1-.86-3.33,0-6.65,0-10-.09-.72,0-.89.32-.88,1,0,1.37,0,2.74,0,4.11,0,.61.17,1.29-.35,1.81-.76.42-1.06-.2-1.35-.65a30.33,30.33,0,0,1-3.44-6,16.55,16.55,0,0,0-1.22-2.55A79.71,79.71,0,0,0,308.51,293a5.4,5.4,0,0,0-1.37-1.81l-.81.76a1.75,1.75,0,0,0-1.89-1.1c-2,0-4,0-6,0a2.62,2.62,0,0,1-1.81-.43c-.66-.59-1.18-.33-1.84,0a5.16,5.16,0,0,1-3.09.94,14.94,14.94,0,0,0-3-.2,10.53,10.53,0,0,1-3-.36,36.61,36.61,0,0,1-4.1-1.66c-1-.42-1.95-.68-2.93.15a3.43,3.43,0,0,1-1.94.6c-2.24.19-4.5.29-6.73.6a1.9,1.9,0,0,0-1.45.82,4.07,4.07,0,0,1-.66.87,6.49,6.49,0,0,0-2.28,5,1,1,0,0,1-.93,1.08,59.62,59.62,0,0,1,2.39-17.21,47.79,47.79,0,0,1,10.49-19c.5-.53.91-1.14,1.36-1.72.24.05.36-.07.4-.29h0a2.35,2.35,0,0,0,.95-.79,34.12,34.12,0,0,1,7-5.35c.31-.19.6-.41.91-.61l3.37-1.62a30.49,30.49,0,0,1,5.2-1.64A41.72,41.72,0,0,1,306.92,249.48Zm-20.33,16.58c-.23.1-.54.08-.65.39h0a3,3,0,0,0-.6.18c-7.21,4.09-10,14.51-1.76,21.06a11.52,11.52,0,0,0,8.22,2.3,4.64,4.64,0,0,0,4.72-2.61c.17-.31.38-.61.57-.92a.5.5,0,0,0,.2-.66c-.16-.29-.42-.16-.66-.08a2.24,2.24,0,0,1-.45.09,1.58,1.58,0,0,1-.7-1.29.33.33,0,0,0-.06-.19,1.31,1.31,0,0,1-.14-1.33l.14,0,.15,0a.63.63,0,0,0,.52-.24l.66-.1c.33,0,.67.05.93-.23l.65-.09c.34,0,.69.05.94-.26l.33-.05a.73.73,0,0,0,.61-.22,3.13,3.13,0,0,0,2-1.38c.61-1.23,1-1.85-1-1.9a36.74,36.74,0,0,1-5-.28c-1.35-.22-1.59-.5-1.36-1.89.16-1,.41-1.94.63-2.91.62-1.31,1.27-2.61,1.84-3.94.36-.85,1.44-1.65,1.06-2.47s-1.67-.92-2.59-1.27a4.89,4.89,0,0,0-3.11-.6l-1.35.08a8.37,8.37,0,0,0-4.42.63C286.75,265.83,286.62,265.85,286.59,266.06ZM306.7,322.3c-.29,2-.17,1.72,1.5,1.71,3.33,0,6.66,0,10-.07.4,0,.85.19,1.14-.18,0-.84,0-1.63,0-2.42,0-.63-.11-1-.85-.94-1.32.08-2.64.06-4,.09H306.7Zm-10.88,1.26a18,18,0,0,1,2.21.11,1.74,1.74,0,0,0,2-1.07,78,78,0,0,1,7.49-10.78c.8-1,1.58-2,2.42-2.94a1.14,1.14,0,0,0,.11-1.67c-.89-1.19-1.73-2.4-2.57-3.62-.39-.55-.73-.44-1.14,0a32.35,32.35,0,0,0-2.21,2.48c-2.78,3.66-5.57,7.31-8.47,10.88a58.18,58.18,0,0,0-4.27,5.5c-.19.29-.52.56-.27,1.09h2.44A7.78,7.78,0,0,0,295.82,323.56Zm24-19.4a3.76,3.76,0,0,0,1.54-1.12,50.84,50.84,0,0,0,8.48-10,44.37,44.37,0,0,1,3.92-5.3,36.56,36.56,0,0,1,2.72,4.21,47.65,47.65,0,0,0,4.76,6.71c.39.44.73,1,1.51.87-.33-2.22-7.94-14.56-10-16.22-2.23,3.22-4.47,6.42-6.67,9.64a94.48,94.48,0,0,0-5.12,8A7.57,7.57,0,0,0,319.78,304.16Zm-43,15.3v0h-2.85c-1.9,0-2,.09-2,1.94a6.87,6.87,0,0,0,0,.79,1,1,0,0,0,1.09,1.06c2.54.06,5.07.14,7.61.24.73,0,.9-.33.82-1a11.79,11.79,0,0,1-.1-2.05c.06-.77-.18-1.06-.95-1C279.17,319.49,278,319.46,276.74,319.46Zm56.09-13,6.4-.26c1-.05,1-.1,1.06-1.26,0-.78-.28-1-1-1-4.6,0-9.2,0-13.8,0-.87,0-1.1.44-1.14,1.64,0,.87.46.91,1.1.91ZM318.54,274.2l-.32,0a11.12,11.12,0,0,0-.63,1.24,1.69,1.69,0,0,1-1.93,1.23,2.57,2.57,0,0,0-1.79.32c.65.64,1.48,1,1.69,1.9s-.45,1.58-.24,2.39c.12,0,.19.05.22,0a3.61,3.61,0,0,0,.53-.33c1.27-1,1.39-1,2.63.1.33.28.57.72,1.2.72-.18-.69-.34-1.29-.51-1.89s-.05-.86.56-1.06a7.65,7.65,0,0,0,2.76-1.6c-1,0-1.64,0-2.3,0-1.1-.05-1.22-.16-1.47-1.24C318.81,275.39,318.68,274.8,318.54,274.2ZM337,299.73a51.34,51.34,0,0,0-3.53-6.24c-2.07,1.34-2.23,3.68-3.36,5.51C332.29,299.91,334.53,299.22,337,299.73Zm-28.68,17c3.11-.05,5.9,0,9.06-.14l-4-4.52a.5.5,0,0,0-.81,0A31.59,31.59,0,0,0,308.27,316.69ZM283,315.27a12.7,12.7,0,0,1-1.35-2.72,5.32,5.32,0,0,0-.76-1.38c-.32-.33-.65-.38-.92,0a15.77,15.77,0,0,0-2.42,3.95A11.35,11.35,0,0,0,283,315.27Zm37.18-46.75a4,4,0,0,1,3.48-1.48c.14,0,.29-.12.44-.17.41-.14.85-.35.81-.83s-.51-.44-.87-.53c-1.53-.39-1.52-.39-1.43-2,0-.05-.15-.11-.23-.16a1.51,1.51,0,0,0-.26.18c-1.31,1.42-1.31,1.42-2.24-.19,0,0-.1,0-.18,0-.08.57.3,1.14,0,1.67s-1.23.21-1.61.94C319.12,266.44,320.54,266.47,320.2,268.52ZM341.07,311c0-.45-.38-.46-.67-.47s-.51.14-.44.48a.58.58,0,0,0,.65.5A.53.53,0,0,0,341.07,311Z" transform="translate(-261.75 -246.51)"/><path class="cls-11" d="M329.42,338.5a8.6,8.6,0,0,0-2.81-.25c-6.84.06-13.67.15-20.51.22-.15,0-.31,0-.46.07a20.21,20.21,0,0,0-3.81,0,40.52,40.52,0,0,0-5.05,0,72.08,72.08,0,0,0-7.35,0c-2.45-.06-4.89-.1-7.33.07a22.9,22.9,0,0,0-4.38.22c-1.43-.93-2.15-2.44-3.08-3.77-.3-.43-.54-.91-.81-1.36-.08-.59.16-.86.78-.87,1.16,0,2.32-.09,3.48-.14h9.14a6,6,0,0,0,1.89,0,3.09,3.09,0,0,0,1.32,0H291a42.36,42.36,0,0,0,4.78.07,18.73,18.73,0,0,0,3.51.1,32.19,32.19,0,0,0,5.1.13h1.26a1.62,1.62,0,0,0,.95,0c2.86.06,5.72.15,8.58,0a8.76,8.76,0,0,0,2.23,0c2.44.09,4.88.13,7.32,0,2,0,4,0,6,.11a12.07,12.07,0,0,1,4.78.73c-.87,1.39-1.7,2.76-2.58,4.1a1.26,1.26,0,0,1-1.62.59A4.19,4.19,0,0,0,329.42,338.5Z" transform="translate(-261.75 -246.51)"/><path class="cls-3" d="M324.72,333.1c-2.44.12-4.88.08-7.32,0a.89.89,0,0,1,.71-.28,3.52,3.52,0,0,0,1.69-.27c.83-.45.88-.83.1-1.33-.39-.26-.92-.35-1.14-.8a2,2,0,0,0-1.9-1.16c-.31,0-.63-.19-.55-.6s.4-.26.65-.29c.76-.12,1.58.23,2.29-.28a12.78,12.78,0,0,1,2.9,0c.05.39-.13,1,.33,1.09,1.07.22,1.18,1,1.35,1.82S324.79,332.24,324.72,333.1Z" transform="translate(-261.75 -246.51)"/><path class="cls-3" d="M328.43,259.59a60.07,60.07,0,0,0-8.52-6.15,2,2,0,0,0-1.86-.94l-.05,0c-.2-.56-.74-.68-1.2-.87a3.76,3.76,0,0,1-1.36-.67c.1-.64.53-.72,1.05-.59s1,.27,1.52.38c.7.16.6-.36.62-.76h.95c.06.2.11.45.32.51a1.73,1.73,0,0,1,1.28,1.78,1.76,1.76,0,0,0,.93,1.54,19.22,19.22,0,0,0,3,1.72c1.19.48,1.91,1.76,2.87,2.64A1.51,1.51,0,0,1,328.43,259.59Z" transform="translate(-261.75 -246.51)"/><path class="cls-12" d="M270.72,310.25a1.41,1.41,0,0,1-.58,1.07,5.15,5.15,0,0,0-1.24,1.62,1,1,0,0,1-1.06.78c-.53,0-.74-.43-.83-.82a1.38,1.38,0,0,0-1.32-1.15,47.87,47.87,0,0,1-1-13.4,1,1,0,0,0,.93-1.08,6.49,6.49,0,0,1,2.28-5,4.07,4.07,0,0,0,.66-.87,1.9,1.9,0,0,1,1.45-.82c2.23-.31,4.49-.41,6.73-.6a3.43,3.43,0,0,0,1.94-.6c1-.83,1.91-.57,2.93-.15a36.61,36.61,0,0,0,4.1,1.66,10.53,10.53,0,0,0,3,.36,14.94,14.94,0,0,1,3,.2,5.16,5.16,0,0,0,3.09-.94c.66-.34,1.18-.6,1.84,0a2.62,2.62,0,0,0,1.81.43c2,0,4,0,6,0a1.75,1.75,0,0,1,1.89,1.1c-.15.22-.29.44-.44.65-2.29,3.13-4.79,6.11-6.95,9.34h0a1.12,1.12,0,0,0-.49.66,77.49,77.49,0,0,0-5.77,8.58,15.87,15.87,0,0,0-1.65,2.89.43.43,0,0,1-.63-.23c-.24-.52-.48-1-.73-1.54.18-.73,1.06-.78,1.35-1.39a2,2,0,0,0,.31-.35,73.36,73.36,0,0,1,4.8-6.95,15.1,15.1,0,0,0,2.51-3.53c.38-.44.78-.86,1.14-1.31a1.65,1.65,0,0,0-1-2.77,5.11,5.11,0,0,0-2.66.12,7.58,7.58,0,0,1-3.26.46,10.48,10.48,0,0,0-4.05.49,2.49,2.49,0,0,1-1.56.11c-1.27-.43-2.49.17-3.74.08-.65-.05-1.52,1.21-1.18,1.71.62.93.82,2.2,2,2.7a2.11,2.11,0,0,1,.35.94c0,.51-.09.94-.72,1a2.9,2.9,0,0,1-.85-1.11.15.15,0,0,0-.13-.18c-.46-.57-.93-1.12-1.38-1.69-1.38-1.76-1.38-1.77-2.68-.1l-.92-.13c0-2.26-.26-2.54-2.53-2.53a39.81,39.81,0,0,0-4.87.24c-1.69.23-2.69,1.31-3.8,2.31a1.83,1.83,0,0,0-.53,1.44c0,1.32,0,2.64,0,3.95,0,.46.07.85.61.95a20.86,20.86,0,0,0,.45,3.86c.17,1.37.85,1.54,1.88.66C269.69,310.9,270,310.3,270.72,310.25Z" transform="translate(-261.75 -246.51)"/><path class="cls-12" d="M297.41,353a6.05,6.05,0,0,0-1.91-.54,67.91,67.91,0,0,1-6.58-3.23l-5.69-4.42-.06-.07a.23.23,0,0,0-.27-.24l-.06-.06a.24.24,0,0,0-.27-.26l-.05,0a.25.25,0,0,0-.28-.27l0,0a.26.26,0,0,0-.28-.28l0,0a.27.27,0,0,0-.29-.29c-.42-.5-.84-1-1.25-1.51.59-.7,1.49-.17,2.17-.54a3.53,3.53,0,0,0,1.41-.06,76.81,76.81,0,0,0,10.29,0,28,28,0,0,0,4.49,0,72.76,72.76,0,0,0,8.86.2l1.88,0a10.36,10.36,0,0,0,2.55,0,30.24,30.24,0,0,0,4.15,0c2.69.1,5.38.21,8.07.3l1.43,0c.7,0,1.55,0,1.83.7s-.58,1-1,1.43a32.26,32.26,0,0,1-9,6.39,6.18,6.18,0,0,0-1,.71l-2.91,1.35a32.43,32.43,0,0,1-12.64,1.44A30.47,30.47,0,0,0,297.41,353Zm4.11-3.48a48.15,48.15,0,0,0,10-.18,16.17,16.17,0,0,0,6.93-2.85c-7-.67-14.05-.3-21.06-.36-2.1-.39-6-.26-7.27.29a19.46,19.46,0,0,0,9.24,2.88A8.07,8.07,0,0,0,301.52,349.51Z" transform="translate(-261.75 -246.51)"/><path class="cls-9" d="M289.12,332.73a6,6,0,0,1-1.89,0,1.28,1.28,0,0,0-.89-.23l-7.36,0a1.27,1.27,0,0,0-.89.21c-1.16.05-2.32.12-3.48.14-.62,0-.86.28-.78.87-.88-1.51-1.78-3-2.64-4.52a3,3,0,0,1-.2-.9h9.25c2.58,0,5.17,0,7.75,0,.66,0,1.16.1,1.14.92a2,2,0,0,0,1.27,2c.7.31.63.89.59,1.48h-.56A.91.91,0,0,0,289.12,332.73Z" transform="translate(-261.75 -246.51)"/><path class="cls-9" d="M283.23,344.8l5.69,4.42c-.3.09-.7.14-.6.56.17.74-.22.9-.76.72s-1.46-.19-2-.8-1.39-.34-2.1-.42c0-.34,0-.7-.3-.94A7.44,7.44,0,0,1,283.23,344.8Z" transform="translate(-261.75 -246.51)"/><path class="cls-9" d="M282.51,341.17c-.68.37-1.58-.16-2.17.54-.83-1-2-1.67-2.62-2.86a22.9,22.9,0,0,1,4.38-.22c-.76.49-1.64.08-2.48.36a4,4,0,0,0,2.4.49c.13,0,.56-.07.34.2C281.85,340.29,282.74,340.66,282.51,341.17Z" transform="translate(-261.75 -246.51)"/><path class="cls-13" d="M267.67,320.73a.56.56,0,0,1,.2.65A.6.6,0,0,1,267.67,320.73Z" transform="translate(-261.75 -246.51)"/><path class="cls-9" d="M281.92,343.54a.26.26,0,0,1,.28.28A.24.24,0,0,1,281.92,343.54Z" transform="translate(-261.75 -246.51)"/><path class="cls-9" d="M282.24,343.86a.25.25,0,0,1,.28.27A.25.25,0,0,1,282.24,343.86Z" transform="translate(-261.75 -246.51)"/><path class="cls-9" d="M282.9,344.49a.23.23,0,0,1,.27.24Q282.89,344.78,282.9,344.49Z" transform="translate(-261.75 -246.51)"/><path class="cls-5" d="M279.36,260.16c0,.22-.16.34-.4.29A.43.43,0,0,1,279.36,260.16Z" transform="translate(-261.75 -246.51)"/><path class="cls-12" d="M265.86,312l.06.74C265.7,312.46,265.59,312.22,265.86,312Z" transform="translate(-261.75 -246.51)"/><path class="cls-12" d="M266.42,315.36l.14.4A.31.31,0,0,1,266.42,315.36Z" transform="translate(-261.75 -246.51)"/><path class="cls-13" d="M267.5,319.82a1.08,1.08,0,0,1,.08.19s0,.06,0,.1a1.3,1.3,0,0,1-.11-.19S267.47,319.85,267.5,319.82Z" transform="translate(-261.75 -246.51)"/><path class="cls-13" d="M267.18,318.55a.21.21,0,0,1,.07.26.7.7,0,0,1-.13-.17S267.16,318.58,267.18,318.55Z" transform="translate(-261.75 -246.51)"/><path class="cls-9" d="M281.59,343.22a.27.27,0,0,1,.29.29C281.69,343.5,281.59,343.41,281.59,343.22Z" transform="translate(-261.75 -246.51)"/><path class="cls-9" d="M282.57,344.17a.24.24,0,0,1,.27.26C282.65,344.44,282.57,344.35,282.57,344.17Z" transform="translate(-261.75 -246.51)"/><path class="cls-4" d="M307.56,341.28a72.76,72.76,0,0,1-8.86-.2c-1-.54-2.06-1.11-1.92-2.55a40.52,40.52,0,0,1,5.05,0c1.15.53,2.41.21,3.59.48.06,0,.15-.13.22-.2h.64A1.26,1.26,0,0,0,307,340,1.3,1.3,0,0,1,307.56,341.28Z" transform="translate(-261.75 -246.51)"/><path class="cls-6" d="M307.56,341.28A1.3,1.3,0,0,0,307,340a1.26,1.26,0,0,1-.71-1.13,52.93,52.93,0,0,1,7.55.32c1.65.23,2.14.65,2.31,2.2a30.24,30.24,0,0,1-4.15,0,2.8,2.8,0,0,0-2.55,0Z" transform="translate(-261.75 -246.51)"/><path class="cls-6" d="M305.64,338.81c-.07.07-.16.21-.22.2-1.18-.27-2.44.05-3.59-.48a20.21,20.21,0,0,1,3.81,0A2.43,2.43,0,0,1,305.64,338.81Z" transform="translate(-261.75 -246.51)"/><path class="cls-1" d="M325.05,338.67a5.58,5.58,0,0,1,2.44,0A5.73,5.73,0,0,1,325.05,338.67Z" transform="translate(-261.75 -246.51)"/><path class="cls-7" d="M314.57,251.15l-6.4-1.57c.73-.35,1.41.07,2.09.18,1.12.19,2.23.51,3.34.77l1,.36Z" transform="translate(-261.75 -246.51)"/><path class="cls-4" d="M314.57,251.15l0-.26.84.05a3.76,3.76,0,0,0,1.36.67c.46.19,1,.31,1.2.87A22.32,22.32,0,0,1,314.57,251.15Z" transform="translate(-261.75 -246.51)"/><path class="cls-7" d="M299.61,282l-.33.05a1.1,1.1,0,0,0-.94.26l-.65.09a1.07,1.07,0,0,0-.93.23l-.66.1a.46.46,0,0,0-.52.24l-.15,0-.14,0h-.43c-.52-.05-1,.41-1.54.16-1.7-.75-3.35-1.58-4.29-3.3a18.6,18.6,0,0,1-2.56-6.76c-.17-1.41-.77-2.84,0-4.3a1.24,1.24,0,0,0-.42-1.69l-.13-.65h0l.69,0H287l4.39-1.26,1.35-.08c.53.32,1.22.15,1.71.59-2,.62-2.07.84-2.13,2.89a11.55,11.55,0,0,0,.66,2.57c.4,2.11.54,2.22,2.56,2.23-.22,1-.47,1.93-.63,2.91-.23,1.39,0,1.67,1.36,1.89a36.74,36.74,0,0,0,5,.28c2,.05,1.61.67,1,1.9a3.13,3.13,0,0,1-2,1.38A.63.63,0,0,0,299.61,282Z" transform="translate(-261.75 -246.51)"/><path class="cls-3" d="M324.39,318.87c-3-4-5.94-8-8.65-12.19-1.91-3-4.14-5.69-6.22-8.53a14.31,14.31,0,0,1-1.69-2.46c.39-.12.83.42,1.16,0s.08-.8-.2-1.14a2.14,2.14,0,0,1-.28-1.5A79.71,79.71,0,0,1,319,307.82a16.55,16.55,0,0,1,1.22,2.55,30.33,30.33,0,0,0,3.44,6c.29.45.59,1.07,1.35.65.53.56,1-.05,1.52-.08.4.52,1,.3,1.46.31,2.74,0,5.49,0,8.23,0,1.11,0,1.13,0,1,1.14a31.75,31.75,0,0,1-.4,3.76c-.15.69-.4,1-1.12,1q-3.48,0-7,0a.89.89,0,0,1-.84-.54c-.64-1.05-1.29-2.09-1.94-3.14-.14-.22-.15-.64-.59-.37h0c.28-.52-.15-.7-.48-.77s-.14.32-.2.51Z" transform="translate(-261.75 -246.51)"/><path class="cls-6" d="M294.86,283h.43a1.31,1.31,0,0,0,.14,1.33l0,.11.1.08a1.58,1.58,0,0,0,.7,1.29c.11.49.93,0,.91.65-.19.31-.4.61-.57.92a4.64,4.64,0,0,1-4.72,2.61c-.48.08-.81-.36-1.32-.36a6.87,6.87,0,0,1-3.1-1,24.14,24.14,0,0,1-4.44-3.23,7.06,7.06,0,0,1-2.61-4.22,25.17,25.17,0,0,1,0-5.82,9,9,0,0,1,1-3.44c.44-.81,1.24-1.33,1.56-2.13a3.66,3.66,0,0,1,2.36-2.11,1.4,1.4,0,0,1-.19,1.06,4.18,4.18,0,0,0-.75,3,1.6,1.6,0,0,1-.1.61,4.4,4.4,0,0,0,.24,3.23,17.52,17.52,0,0,0,.82,2.05c1,1.84,1.35,3.91,2.48,5.74s3.06,2.82,4.62,4.16c.88.75,1.77.13,1.81-1.08a3.21,3.21,0,0,1,.51-2.24C295,283.94,294.83,283.4,294.86,283Z" transform="translate(-261.75 -246.51)"/><path class="cls-1" d="M319.78,304.16a7.57,7.57,0,0,1,1.11-3.22,94.48,94.48,0,0,1,5.12-8c2.2-3.22,4.44-6.42,6.67-9.64,2.09,1.66,9.7,14,10,16.22-.78.17-1.12-.43-1.51-.87a47.65,47.65,0,0,1-4.76-6.71,36.56,36.56,0,0,0-2.72-4.21,44.37,44.37,0,0,0-3.92,5.3,50.84,50.84,0,0,1-8.48,10A3.76,3.76,0,0,1,319.78,304.16Z" transform="translate(-261.75 -246.51)"/><path class="cls-2" d="M283.13,302.52a2.9,2.9,0,0,0,.85,1.11l5.71,8.7c.25.51.49,1,.73,1.54a.43.43,0,0,0,.63.23l.79.5c-.17.82-1.08,1.22-1.21,2.07a61.86,61.86,0,0,1-5.8-7.51c-1.23-1.71-2.39-3.47-3.59-5.2-.24-.33-.42-.74-.85-.9a2.26,2.26,0,0,0-.74,1c-1.82,3.09-3.61,6.21-5.72,9.12a22.12,22.12,0,0,1-2.93,3.33,4.59,4.59,0,0,1-.85.69c-.62.31-1,0-.95-.72a5.08,5.08,0,0,1,.7-1.76A58.44,58.44,0,0,1,274,307.8a3.7,3.7,0,0,0,.82-1.34.27.27,0,0,0,.25-.31c1.33-1.83,2.66-3.66,3.83-5.6,1.3-1.67,1.3-1.66,2.68.1.45.57.92,1.12,1.38,1.69v.13Z" transform="translate(-261.75 -246.51)"/><path class="cls-6" d="M295.82,323.56a7.78,7.78,0,0,1-2.26,0,2.32,2.32,0,0,1,.63-3.17,38.57,38.57,0,0,0,4.52-5.26c1.21-1.5,2.31-3.09,3.5-4.6.49-.63.67-1.58,1.2-2a28.32,28.32,0,0,1,2.65-2,1.5,1.5,0,0,1,2.42,1.15c.29,1.85-.1,2.56-1.89,3.53-.8.44-1.67,1-1.8,1.89-.19,1.29-1.47,1.92-1.62,3.16,0,.16-.27.31-.44.44a8,8,0,0,0-2.89,3.68c-.45,1.19-1.1,2.26-2.68,2.29C296.68,322.72,295.94,322.77,295.82,323.56Z" transform="translate(-261.75 -246.51)"/><path class="cls-3" d="M295.82,323.56c.12-.79.86-.84,1.34-.84,1.58,0,2.23-1.1,2.68-2.29a8,8,0,0,1,2.89-3.68c.17-.13.41-.28.44-.44.15-1.24,1.43-1.87,1.62-3.16.13-.85,1-1.45,1.8-1.89,1.79-1,2.18-1.68,1.89-3.53a1.5,1.5,0,0,0-2.42-1.15,28.32,28.32,0,0,0-2.65,2c-.53.38-.71,1.33-1.2,2-1.19,1.51-2.29,3.1-3.5,4.6a38.57,38.57,0,0,1-4.52,5.26,2.32,2.32,0,0,0-.63,3.17h-2.44c-.25-.53.08-.8.27-1.09a58.18,58.18,0,0,1,4.27-5.5c2.9-3.57,5.69-7.22,8.47-10.88a32.35,32.35,0,0,1,2.21-2.48c.41-.43.75-.54,1.14,0,.84,1.22,1.68,2.43,2.57,3.62a1.14,1.14,0,0,1-.11,1.67c-.84.95-1.62,1.95-2.42,2.94A78,78,0,0,0,300,322.6a1.74,1.74,0,0,1-2,1.07A18,18,0,0,0,295.82,323.56Z" transform="translate(-261.75 -246.51)"/><path class="cls-13" d="M270.72,310.25c-.71.05-1,.65-1.5,1.05-1,.88-1.71.71-1.88-.66a20.86,20.86,0,0,1-.45-3.86c0-.85,0-1.69,0-2.54a3.59,3.59,0,0,1,3.19-3.14c2.22.12,4.44.18,6.66.27-1,1.47-2.07,2.95-3.13,4.41a7.31,7.31,0,0,0-1.33,2.25c-1,.25-1.29,1.08-1.56,1.92C270.73,310.05,270.73,310.15,270.72,310.25Z" transform="translate(-261.75 -246.51)"/><path class="cls-4" d="M315.17,333.1c-2.86.11-5.72,0-8.58,0a.59.59,0,0,0-.95,0h-1.26a6.8,6.8,0,0,1,.18-.92.73.73,0,0,0-.28-.95,12.25,12.25,0,0,0-6.6-2.44c.38-.52.95-.35,1.45-.36,1.79,0,3.57,0,5.35-.05.56,0,1.16.17,1.68-.19,2.57-.06,5.13-.18,7.7-.05-.56.46-1.22.24-1.83.25-1.35,0-2.71,0-4.06,0l0,.32a4.87,4.87,0,0,1,4.2,1.28,3.29,3.29,0,0,0,1.31.86C315.1,331.39,315.1,331.39,315.17,333.1Z" transform="translate(-261.75 -246.51)"/><path class="cls-1" d="M326.51,316.92c-.51,0-1,.64-1.52.08.52-.52.33-1.2.35-1.81,0-1.37,0-2.74,0-4.11,0-.64.16-1,.88-1,3.33.05,6.65.07,10,.09.62,0,.91.15,1,.86.23,2.46.26,2.45-2.16,2.43s-4.75,0-7.12,0c-.76,0-1.07.21-1,1A5.54,5.54,0,0,1,326.51,316.92Z" transform="translate(-261.75 -246.51)"/><path class="cls-6" d="M308.51,293a2.14,2.14,0,0,0,.28,1.5c.28.34.49.76.2,1.14s-.77-.11-1.16,0h0c-.09-.13.21-.57-.3-.37a.62.62,0,0,0-.9,0,1.27,1.27,0,0,0-1.17.66c-.61.95-1.15,1.94-1.69,2.93-.08.15,0,.4,0,.61l0,0c-.77,0-.73.45-.66,1l0,0a.47.47,0,0,0-.38.34l.05-.05c-.33.13-.37.4-.33.7l0,0c-.17,0-.28.07-.15.26-1.46,2.38-3.18,4.58-4.86,6.81-.23.32-.35.76-.73,1a2.17,2.17,0,0,1,.39-1.77,30.39,30.39,0,0,0,2.49-4.68c.47-.89-.1-1-.74-1,2.16-3.23,4.66-6.21,6.95-9.34.15-.21.29-.43.44-.65l.81-.76A5.4,5.4,0,0,1,308.51,293Z" transform="translate(-261.75 -246.51)"/><path class="cls-9" d="M276.74,319.46c1.21,0,2.43,0,3.65,0,.77,0,1,.27.95,1a11.79,11.79,0,0,0,.1,2.05c.08.65-.09,1-.82,1-2.54-.1-5.07-.18-7.61-.24a1,1,0,0,1-1.09-1.06,6.87,6.87,0,0,1,0-.79c0-1.85.1-1.92,2-1.94h2.85Z" transform="translate(-261.75 -246.51)"/><path class="cls-1" d="M332.83,306.44h-7.39c-.64,0-1.14,0-1.1-.91,0-1.2.27-1.64,1.14-1.64,4.6,0,9.2,0,13.8,0,.73,0,1,.23,1,1,0,1.16,0,1.21-1.06,1.26Z" transform="translate(-261.75 -246.51)"/><path class="cls-1" d="M285.29,267.7a3.66,3.66,0,0,0-2.36,2.11c-.32.8-1.12,1.32-1.56,2.13a9,9,0,0,0-1,3.44,25.17,25.17,0,0,0,0,5.82,7.06,7.06,0,0,0,2.61,4.22,24.14,24.14,0,0,0,4.44,3.23,6.87,6.87,0,0,0,3.1,1c.51,0,.84.44,1.32.36a11.52,11.52,0,0,1-8.22-2.3c-8.27-6.55-5.45-17,1.76-21.06a3,3,0,0,1,.6-.18c0,.22.09.43.13.65Z" transform="translate(-261.75 -246.51)"/><path class="cls-14" d="M276.77,301.37c-2.22-.09-4.44-.15-6.66-.27a3.59,3.59,0,0,0-3.19,3.14c0,.85,0,1.69,0,2.54-.54-.1-.61-.49-.61-.95,0-1.31,0-2.63,0-3.95a1.83,1.83,0,0,1,.53-1.44c1.11-1,2.11-2.08,3.8-2.31a39.81,39.81,0,0,1,4.87-.24c2.27,0,2.53.27,2.53,2.53C277.36,300.41,277.31,301.22,276.77,301.37Z" transform="translate(-261.75 -246.51)"/><path class="cls-8" d="M295.5,273.44c-2,0-2.16-.12-2.56-2.23a11.55,11.55,0,0,1-.66-2.57c.06-2.05.15-2.27,2.13-2.89h1.4c.92.35,2.2.43,2.59,1.27s-.7,1.62-1.06,2.47C296.77,270.83,296.12,272.13,295.5,273.44Z" transform="translate(-261.75 -246.51)"/><path class="cls-6" d="M306.7,322.3v-1.81h7.82c.62.44,1.33.19,2,.25.44,0,.87.06,1.06.52.3.72-.13,1.35-.33,2s-.71.34-1.11.34c-2.17,0-4.33,0-6.49,0-1.19,0-2-.22-2.44-1.45C307,321.62,306.9,322.32,306.7,322.3Z" transform="translate(-261.75 -246.51)"/><path class="cls-5" d="M291,332.74c0-.59.11-1.17-.59-1.48a2,2,0,0,1-1.27-2c0-.82-.48-.92-1.14-.92-2.58,0-5.17,0-7.75,0a7.31,7.31,0,0,1,.92-.14c4.37-.08,8.74-.15,13.11,0,.66.43,1.43,0,2.15.3-.37.4-1.39.17-1.11,1.13s0,2.19.46,3.22A42.36,42.36,0,0,1,291,332.74Z" transform="translate(-261.75 -246.51)"/><path class="cls-6" d="M315.17,333.1c-.07-1.71-.07-1.71-1.71-2.29a3.29,3.29,0,0,1-1.31-.86,4.87,4.87,0,0,0-4.2-1.28l0-.32c1.35,0,2.71,0,4.06,0,.61,0,1.27.21,1.83-.25a53.83,53.83,0,0,1,5.39,0c-.71.51-1.53.16-2.29.28-.25,0-.58,0-.65.29s.24.6.55.6a2,2,0,0,1,1.9,1.16c.22.45.75.54,1.14.8.78.5.73.88-.1,1.33a3.52,3.52,0,0,1-1.69.27.89.89,0,0,0-.71.28A8.76,8.76,0,0,1,315.17,333.1Z" transform="translate(-261.75 -246.51)"/><path class="cls-4" d="M318.54,274.2c.14.6.27,1.19.4,1.79.25,1.08.37,1.19,1.47,1.24.66,0,1.32,0,2.3,0a7.65,7.65,0,0,1-2.76,1.6c-.61.2-.71.52-.56,1.06s.33,1.2.51,1.89c-.63,0-.87-.44-1.2-.72-1.24-1.06-1.36-1.06-2.63-.1a3.61,3.61,0,0,1-.53.33s-.1,0-.22,0c-.21-.81.44-1.56.24-2.39s-1-1.26-1.69-1.9a2.57,2.57,0,0,1,1.79-.32,1.69,1.69,0,0,0,1.93-1.23,11.12,11.12,0,0,1,.63-1.24Z" transform="translate(-261.75 -246.51)"/><path class="cls-3" d="M337,299.73c-2.42-.51-4.66.18-6.89-.73,1.13-1.83,1.29-4.17,3.36-5.51A51.34,51.34,0,0,1,337,299.73Z" transform="translate(-261.75 -246.51)"/><path class="cls-3" d="M308.27,316.69a31.59,31.59,0,0,1,4.24-4.68.5.5,0,0,1,.81,0l4,4.52C314.17,316.7,311.38,316.64,308.27,316.69Z" transform="translate(-261.75 -246.51)"/><path class="cls-4" d="M298.94,302c.64.06,1.21.14.74,1a30.39,30.39,0,0,1-2.49,4.68,2.17,2.17,0,0,0-.39,1.77,9.82,9.82,0,0,1-1.78,2.37c-.22-.42-.47-.75-1-.3-.38-.4-.88-.3-1.35-.32a77.49,77.49,0,0,1,5.77-8.58A.62.62,0,0,0,299,302Z" transform="translate(-261.75 -246.51)"/><path class="cls-9" d="M283,315.27a11.35,11.35,0,0,1-5.45-.13,15.77,15.77,0,0,1,2.42-3.95c.27-.4.6-.35.92,0a5.32,5.32,0,0,1,.76,1.38A12.7,12.7,0,0,0,283,315.27Z" transform="translate(-261.75 -246.51)"/><path class="cls-4" d="M320.2,268.52c.34-2-1.08-2.08-2-2.56.38-.73,1.32-.31,1.61-.94s-.13-1.1,0-1.67c.08,0,.17,0,.18,0,.93,1.61.93,1.61,2.24.19a1.51,1.51,0,0,1,.26-.18c.08.05.23.11.23.16-.09,1.57-.1,1.57,1.43,2,.36.09.83.14.87.53s-.4.69-.81.83c-.15.05-.3.17-.44.17A4,4,0,0,0,320.2,268.52Z" transform="translate(-261.75 -246.51)"/><path class="cls-8" d="M295.77,332.81c-.44-1-.16-2.17-.46-3.22s.74-.73,1.11-1.13c-.72-.27-1.49.13-2.15-.3,4-.12,7.93-.16,11.9,0-.53.36-1.13.18-1.69.19-1.78,0-3.56,0-5.35.05-.5,0-1.07-.16-1.45.36-.16.32-.75.13-.77.67a8.09,8.09,0,0,1,2.37,3.51A18.73,18.73,0,0,1,295.77,332.81Z" transform="translate(-261.75 -246.51)"/><path class="cls-3" d="M306.7,322.3c.2,0,.32-.68.51-.14.42,1.23,1.25,1.49,2.44,1.45,2.16-.07,4.32,0,6.49,0,.4,0,1,.15,1.11-.34s.63-1.26.33-2c-.19-.46-.62-.49-1.06-.52-.67-.06-1.38.19-2-.25,1.32,0,2.64,0,4-.09.74,0,.88.31.85.94,0,.79,0,1.58,0,2.42-.29.37-.74.18-1.14.18-3.32,0-6.65.05-10,.07C306.53,324,306.41,324.27,306.7,322.3Z" transform="translate(-261.75 -246.51)"/><path class="cls-6" d="M294.05,311.53c.5-.45.75-.12,1,.3-1.19,1.57-2.23,3.25-3.55,4.73-.25.27-.49.62-.84.11.13-.85,1-1.25,1.2-2.07C293,313.9,293.46,312.66,294.05,311.53Z" transform="translate(-261.75 -246.51)"/><path class="cls-4" d="M324.39,318.87h.27c.24.07.29.6.68.26h0c-.47.23-.12.44,0,.65.63,1.56,1.65,3,1.91,5-1.06-.95-1-2.13-1.53-3.06S324.84,319.81,324.39,318.87Z" transform="translate(-261.75 -246.51)"/><path class="cls-3" d="M303.8,299.55c0-.21-.1-.46,0-.61.54-1,1.08-2,1.69-2.93a1.27,1.27,0,0,1,1.17-.66A30.64,30.64,0,0,1,303.8,299.55Z" transform="translate(-261.75 -246.51)"/><path class="cls-4" d="M291.35,265.24,287,266.5l0-.63A8.37,8.37,0,0,1,291.35,265.24Z" transform="translate(-261.75 -246.51)"/><path class="cls-12" d="M270.75,310c.27-.84.56-1.67,1.56-1.92C272,308.87,271.76,309.71,270.75,310Z" transform="translate(-261.75 -246.51)"/><path class="cls-1" d="M341.07,311a.53.53,0,0,1-.46.51.58.58,0,0,1-.65-.5c-.07-.34.16-.48.44-.48S341,310.56,341.07,311Z" transform="translate(-261.75 -246.51)"/><path class="cls-15" d="M295.81,265.76h-1.4c-.49-.44-1.18-.27-1.71-.59A4.89,4.89,0,0,1,295.81,265.76Z" transform="translate(-261.75 -246.51)"/><path class="cls-4" d="M318.05,252.5a2,2,0,0,1,1.86.94A4.5,4.5,0,0,1,318.05,252.5Z" transform="translate(-261.75 -246.51)"/><path class="cls-12" d="M297.1,286.45c0-.67-.8-.16-.91-.65a2.24,2.24,0,0,0,.45-.09c.24-.08.5-.21.66.08A.5.5,0,0,1,297.1,286.45Z" transform="translate(-261.75 -246.51)"/><path class="cls-3" d="M303.16,300.5c-.07-.52-.11-1,.66-1A2,2,0,0,1,303.16,300.5Z" transform="translate(-261.75 -246.51)"/><path class="cls-15" d="M325.36,319.78c-.13-.21-.48-.42,0-.65s.45.15.59.37A.64.64,0,0,1,325.36,319.78Z" transform="translate(-261.75 -246.51)"/><path class="cls-12" d="M298.34,282.33a1.1,1.1,0,0,1,.94-.26C299,282.38,298.68,282.33,298.34,282.33Z" transform="translate(-261.75 -246.51)"/><path class="cls-12" d="M296.76,282.65a1.07,1.07,0,0,1,.93-.23C297.43,282.7,297.09,282.65,296.76,282.65Z" transform="translate(-261.75 -246.51)"/><path class="cls-1" d="M286.63,266.49l-.69,0c.11-.31.42-.29.65-.39C286.61,266.21,286.62,266.35,286.63,266.49Z" transform="translate(-261.75 -246.51)"/><path class="cls-12" d="M299.61,282a.63.63,0,0,1,.61-.22A.73.73,0,0,1,299.61,282Z" transform="translate(-261.75 -246.51)"/><path class="cls-12" d="M295.58,283a.46.46,0,0,1,.52-.24A.63.63,0,0,1,295.58,283Z" transform="translate(-261.75 -246.51)"/><path class="cls-3" d="M307.54,295.33c.51-.2.21.24.3.37A.44.44,0,0,1,307.54,295.33Z" transform="translate(-261.75 -246.51)"/><path class="cls-3" d="M302.52,301.45c0-.3,0-.57.33-.7C302.77,301,302.84,301.32,302.52,301.45Z" transform="translate(-261.75 -246.51)"/><path class="cls-6" d="M286.63,266.49c0-.14,0-.28,0-.43s.16-.23.34-.19l0,.63Z" transform="translate(-261.75 -246.51)"/><path class="cls-3" d="M302.8,300.8a.47.47,0,0,1,.38-.34C303.14,300.67,303,300.75,302.8,300.8Z" transform="translate(-261.75 -246.51)"/><path class="cls-12" d="M295.49,284.51l-.1-.08,0-.11A.33.33,0,0,1,295.49,284.51Z" transform="translate(-261.75 -246.51)"/><path class="cls-12" d="M275.11,306.15a.27.27,0,0,1-.25.31Z" transform="translate(-261.75 -246.51)"/><path class="cls-3" d="M302.39,301.68c-.13-.19,0-.24.15-.26Z" transform="translate(-261.75 -246.51)"/><path class="cls-7" d="M299.28,332.91a8.09,8.09,0,0,0-2.37-3.51c0-.54.61-.35.77-.67a12.25,12.25,0,0,1,6.6,2.44.73.73,0,0,1,.28.95,6.8,6.8,0,0,0-.18.92A32.19,32.19,0,0,1,299.28,332.91Z" transform="translate(-261.75 -246.51)"/><path class="cls-2" d="M282.51,341.17c.23-.51-.66-.88-.15-1.49.22-.27-.21-.2-.34-.2a4,4,0,0,1-2.4-.49c.84-.28,1.72.13,2.48-.36,2.44-.17,4.88-.13,7.33-.07-.15.34-.32.67.13.94A1.06,1.06,0,0,1,290,341a58,58,0,0,0-6,.12A3.53,3.53,0,0,1,282.51,341.17Z" transform="translate(-261.75 -246.51)"/><path class="cls-5" d="M290,341a1.06,1.06,0,0,0-.4-1.49c-.45-.27-.28-.6-.13-.94a72.08,72.08,0,0,1,7.35,0c-.14,1.44.88,2,1.92,2.55a28,28,0,0,1-4.49,0Z" transform="translate(-261.75 -246.51)"/><path class="cls-5" d="M278.09,332.71a1.27,1.27,0,0,1,.89-.21l7.36,0a1.28,1.28,0,0,1,.89.23Z" transform="translate(-261.75 -246.51)"/><path class="cls-5" d="M289.12,332.73a.91.91,0,0,1,1.31,0A3,3,0,0,1,289.12,332.73Z" transform="translate(-261.75 -246.51)"/><path class="cls-7" d="M305.64,333.05a.59.59,0,0,1,.95,0A1.62,1.62,0,0,1,305.64,333.05Z" transform="translate(-261.75 -246.51)"/><path class="cls-13" d="M284.7,302.64a2.11,2.11,0,0,0-.35-.94,2.78,2.78,0,0,1,2.56-1.26c.94-.07,1.89,0,2.84,0a2.15,2.15,0,0,0,1.52-.3,3.92,3.92,0,0,1,2.83-.65,6,6,0,0,0,2-.06,2.26,2.26,0,0,1,2.52.7,15.1,15.1,0,0,1-2.51,3.53,73.36,73.36,0,0,0-4.8,6.95,2,2,0,0,1-.31.35,1.46,1.46,0,0,1-1.38-.82,58.6,58.6,0,0,1-4.1-6.68C285.39,303.07,285.22,302.66,284.7,302.64Z" transform="translate(-261.75 -246.51)"/><path class="cls-14" d="M298.66,300.11a2.26,2.26,0,0,0-2.52-.7,6,6,0,0,1-2,.06,3.92,3.92,0,0,0-2.83.65,2.15,2.15,0,0,1-1.52.3c-.95,0-1.9-.05-2.84,0a2.78,2.78,0,0,0-2.56,1.26c-1.2-.5-1.4-1.77-2-2.7-.34-.5.53-1.76,1.18-1.71,1.25.09,2.47-.51,3.74-.08a2.49,2.49,0,0,0,1.56-.11,10.48,10.48,0,0,1,4.05-.49,7.58,7.58,0,0,0,3.26-.46,5.11,5.11,0,0,1,2.66-.12,1.65,1.65,0,0,1,1,2.77C299.44,299.25,299,299.67,298.66,300.11Z" transform="translate(-261.75 -246.51)"/><path class="cls-14" d="M284.7,302.64c.52,0,.69.43.86.8a58.6,58.6,0,0,0,4.1,6.68,1.46,1.46,0,0,0,1.38.82c-.29.61-1.17.66-1.35,1.39q-2.85-4.35-5.71-8.7C284.61,303.58,284.71,303.15,284.7,302.64Z" transform="translate(-261.75 -246.51)"/><path class="cls-5" d="M294.05,311.53c-.59,1.13-1,2.37-2.22,3.07l-.78-.5a15.87,15.87,0,0,1,1.65-2.89C293.17,311.23,293.67,311.13,294.05,311.53Z" transform="translate(-261.75 -246.51)"/><path class="cls-6" d="M299,302a.62.62,0,0,1-.49.66A1.12,1.12,0,0,1,299,302Z" transform="translate(-261.75 -246.51)"/><path class="cls-13" d="M283.13,302.52l-.12,0v-.13A.15.15,0,0,1,283.13,302.52Z" transform="translate(-261.75 -246.51)"/><path class="cls-8" d="M299.33,349.29a19.46,19.46,0,0,1-9.24-2.88c1.23-.55,5.17-.68,7.27-.29,0,.1-.37.08-.12.29,0,0,.09,0,.14,0l3.23,0a.71.71,0,0,0,1.19,0c.89-.17,1.71.29,2.59.27,0,.94,1.12.72,1.45,1.4-.56.35-1.48.2-1.43,1.16l-2.86.13A1.68,1.68,0,0,0,299.33,349.29Z" transform="translate(-261.75 -246.51)"/><path class="cls-4" d="M300.61,346.45l-3.23,0c-.05,0-.12,0-.14,0-.25-.21.08-.19.12-.29,7,.06,14-.31,21.06.36a16.17,16.17,0,0,1-6.93,2.85,48.15,48.15,0,0,1-10,.18l0-.1,2.85-.13c1.37,0,2.74.05,4.1,0,1.62,0,2-.35,2.37-1.68-1.78-1.12-3.84-.82-5.78-1.15a.77.77,0,0,0-.7.27c-.88,0-1.7-.44-2.59-.27Z" transform="translate(-261.75 -246.51)"/><path class="cls-9" d="M290,341l4.25.1a76.81,76.81,0,0,1-10.29,0A58,58,0,0,1,290,341Z" transform="translate(-261.75 -246.51)"/><path class="cls-7" d="M301.55,349.41l0,.1a8.07,8.07,0,0,1-2.19-.22A1.68,1.68,0,0,1,301.55,349.41Z" transform="translate(-261.75 -246.51)"/><path class="cls-4" d="M309.44,341.3a2.8,2.8,0,0,1,2.55,0A10.36,10.36,0,0,1,309.44,341.3Z" transform="translate(-261.75 -246.51)"/><path class="cls-4" d="M285.29,267.7l.79-.61a1.24,1.24,0,0,1,.42,1.69c-.8,1.46-.2,2.89,0,4.3a18.6,18.6,0,0,0,2.56,6.76c.94,1.72,2.59,2.55,4.29,3.3.57.25,1-.21,1.54-.16,0,.42.09,1-.13,1.23a3.21,3.21,0,0,0-.51,2.24c0,1.21-.93,1.83-1.81,1.08-1.56-1.34-3.44-2.25-4.62-4.16s-1.49-3.9-2.48-5.74a17.52,17.52,0,0,1-.82-2.05,4.4,4.4,0,0,1-.24-3.23,1.6,1.6,0,0,0,.1-.61,4.18,4.18,0,0,1,.75-3A1.4,1.4,0,0,0,285.29,267.7Z" transform="translate(-261.75 -246.51)"/><path class="cls-15" d="M325.34,319.12c-.39.34-.44-.19-.68-.26.06-.19,0-.55.2-.51S325.62,318.6,325.34,319.12Z" transform="translate(-261.75 -246.51)"/><path class="cls-7" d="M304.39,346.72a.77.77,0,0,1,.7-.27c1.94.33,4,0,5.78,1.15-.38,1.33-.75,1.63-2.37,1.68-1.36.05-2.73,0-4.1,0,0-1,.88-.81,1.44-1.16C305.51,347.44,304.36,347.66,304.39,346.72Z" transform="translate(-261.75 -246.51)"/><path class="cls-7" d="M300.61,346.45h1.19A.71.71,0,0,1,300.61,346.45Z" transform="translate(-261.75 -246.51)"/></svg>