<svg xmlns="http://www.w3.org/2000/svg" viewBox="0 0 107 111"><defs><style>.cls-1{fill:#f5f4f3;}.cls-2{fill:#df4791;}.cls-3{fill:#f4ebc2;}.cls-4{fill:#e8be90;}.cls-5{fill:#d16c7c;}.cls-6{fill:#fadba9;}.cls-7{fill:#cca172;}.cls-8{fill:#cd8564;}.cls-9{fill:#ca3e76;}.cls-10{fill:#908d8d;}.cls-11{fill:#4f0d2d;}.cls-12{fill:#1b1412;}</style></defs><title>Asset 8</title><g id="Layer_2" data-name="Layer 2"><g id="Layer_1-2" data-name="Layer 1"><path class="cls-1" d="M72,3.5A19.74,19.74,0,0,1,77.8,6.22a28.76,28.76,0,0,0,3.14,1.4,46.94,46.94,0,0,1,11.88,9.66,53,53,0,0,1,13.24,26.45,67,67,0,0,1-.46,24.8,39.35,39.35,0,0,1-4.52,13c-2.72,4.57-5.62,9-9.85,12.88C90,95.55,88.74,96.83,87.49,98c-.44.42-.83,1-1.65,1A9.26,9.26,0,0,1,88,95.54c.77-1,.65-1.5-.61-2A24.94,24.94,0,0,0,84,92.29c-.56-.13.09-.2.16-.31a6.51,6.51,0,0,1,2.33.13,1.77,1.77,0,0,0,2-.59c1.09-1.34,2.12-2.71,3.21-4.1a18.55,18.55,0,0,0-5.95-.73c-2.49-.06-5-.08-7.47-.11.09-.86-.9-1.36-1.1-2.11s-.35-1.6-1.68-1.82c-.58-.09-.35-.7-.41-1.09,5.31-.15,10.63-.18,16-.15,1.44,0,2.88-.11,4.33-.15a1.1,1.1,0,0,0,1.13-.68c.82-1.67,1.88-3.26,2.59-5,2.77-6.64,3.43-13.54,3.42-20.47a64.57,64.57,0,0,0-1-11c-.32-1.94-1-3.82-1.33-5.75a35.78,35.78,0,0,0-1.62-4.16,35.47,35.47,0,0,0-3.18-6.79A58.21,58.21,0,0,0,82.9,13.09a1.33,1.33,0,0,0-.61-1.42C81.05,10.79,80.2,9.51,78.72,9A26.35,26.35,0,0,1,75,7.31a1.76,1.76,0,0,1-1.16-1.54A1.8,1.8,0,0,0,72.24,4c-.26-.06-.32-.31-.4-.51Z"/><path class="cls-2" d="M17.48,96.29a39.35,39.35,0,0,1-7.66-9,57.61,57.61,0,0,1-5.43-9.85A66.12,66.12,0,0,1,.3,47.54,48.76,48.76,0,0,1,4.11,32.36,53,53,0,0,1,16.48,14.62a17.57,17.57,0,0,1,2.88-2.37c2.18,0,2.18,0,2.61,1.65h0a.53.53,0,0,0-.49.29,23,23,0,0,1-1.7,1.72,46.23,46.23,0,0,0-13,19,48.84,48.84,0,0,0-3,17.21A39,39,0,0,0,5,65.52c0,.13.07.2.22.2-.34.27-.2.51.07.74a5.87,5.87,0,0,0,.62,2.67.29.29,0,0,0,.18.4,7.33,7.33,0,0,0,.77,2.79s-.09.07-.08.09a1.29,1.29,0,0,0,.16.17,1.5,1.5,0,0,0,.32,1s-.09.08-.08.1a1.33,1.33,0,0,0,.14.19l.15.62a.52.52,0,0,0,.25.65,17.45,17.45,0,0,0,2.55,5.79A2.76,2.76,0,0,0,11.5,82a2.43,2.43,0,0,0,.25.9c1.07,1.52,2.19,3,3.28,4.52.34.45.64.93,1,1.36,1.16,1.33,2.05,2.84,3.83,3.77.76,1.19,2.23,1.86,3.26,2.86L24.69,97c0,.19.12.28.36.29h0a.24.24,0,0,0,.24.28.2.2,0,0,0,.11,0h0a.25.25,0,0,0,.26.26h.08l.07,0c0,.18.1.27.33.26l.08.06q0,.28.33.24l.08.07a6,6,0,0,0-.11,3.54h-.85a5.29,5.29,0,0,0-4.08-2.31l-.13-.09c.09-.35-.18-.41-.52-.42h0a.37.37,0,0,0-.38-.29h0a.37.37,0,0,0-.38-.3h0A.58.58,0,0,0,19.6,98a.54.54,0,0,0-.18,0h0a.36.36,0,0,0-.36-.31h0c0-.27-.08-.49-.52-.43l-.1-.09C18.43,96.6,18.24,96.25,17.48,96.29Z"/><path class="cls-3" d="M83.84,91.51c-.08.12-.77.19-.18.33a28.3,28.3,0,0,1,3.58,1.33c1.32.5,1.47,1.06.65,2.13A10,10,0,0,0,85.6,99h0l-.45.37h0l-.47.37h0l-.46.36a.37.37,0,0,1-.4.31,1.54,1.54,0,0,0-1.7,1.36h0a36.11,36.11,0,0,1-9,5,3.5,3.5,0,0,1-1,.09c-.08-.53,0-1.23.66-1.25,2.26-.08,2.86-1.85,4.42-2.62a.39.39,0,0,0,.16-.6.79.79,0,0,0-.72-.26,3.19,3.19,0,0,0-2,.81,3.43,3.43,0,0,1-2.79.85,4,4,0,0,0-2.65.51,4.39,4.39,0,0,1-2.57.52,8.65,8.65,0,0,1,1.33-.76A44,44,0,0,0,79.8,97.27c.56-.45,1.69-.78,1.32-1.53S79.63,95,78.7,95H76.81l-10.68-.32c-.23-1.65-.88-2.13-3.06-2.34a87.69,87.69,0,0,0-10-.34h-.85a1.41,1.41,0,0,0,0-.29c.2,0,.41-.06.61-.07Q66.41,91.52,80,91.4A14.19,14.19,0,0,1,83.84,91.51Zm-5.09.66a8.57,8.57,0,0,0,3,0,8.57,8.57,0,0,0-3,0Z"/><path class="cls-4" d="M55.39,110.7a43.21,43.21,0,0,1-7.88-.33c.53-.52,1.54-.53,2-1.2s.41-1.06-.63-1.33l-2-.5,1.91-.14a49.61,49.61,0,0,0,15.72-1.44c.36.12.73.21,1.07.34,1.55.57,1.62,1.06.45,2.07a3.22,3.22,0,0,1-1.63.74,29.08,29.08,0,0,0-3.73.94c-.35.11.22.17.34.28a1.85,1.85,0,0,1-1.25.23,3.35,3.35,0,0,0-2.74,0,.57.57,0,0,0,0,.26l-1.15.08C55.64,110.5,55.52,110.56,55.39,110.7Z"/><path class="cls-5" d="M41.89,109.26A45,45,0,0,1,31,105.36,33,33,0,0,1,26.64,103l.34-.21c.88.08,1.9-.21,2.61.42a5.58,5.58,0,0,0,2.49.8c.82.23,1.15,0,.94-.72-.12-.42.38-.47.75-.56C36.42,103.91,39.16,105,42,106,42.08,107.05,41.52,108.15,41.89,109.26Z"/><path class="cls-5" d="M21.91,13.31c-.43-1.63-.43-1.63-2.61-1.66a37.9,37.9,0,0,1,9.19-6.07c.35,0,.63,0,.73-.35h0A.38.38,0,0,0,29.63,5h.07c1.46.17,2.49-1,4.13-.82a8.86,8.86,0,0,1-1,2.42c-.39.2-.75.42-1.13.61A42.45,42.45,0,0,0,23,12.56,3,3,0,0,1,21.91,13.31Z"/><path class="cls-6" d="M61,110.13c-.11-.11-.68-.17-.33-.28a29.08,29.08,0,0,1,3.73-.94,3.22,3.22,0,0,0,1.63-.74c1.17-1,1.09-1.5-.45-2.07-.35-.13-.71-.22-1.07-.34l3.62-1.35a4.16,4.16,0,0,0,2.42-.49,3.76,3.76,0,0,1,2.48-.48,3.23,3.23,0,0,0,2.63-.8,3,3,0,0,1,1.89-.76.75.75,0,0,1,.67.25.36.36,0,0,1-.15.56c-1.47.72-2,2.39-4.15,2.46-.66,0-.7.68-.63,1.18h0l-.46-.33h-.36L72,107h-.32a.93.93,0,0,0-1.24.58v0A28.86,28.86,0,0,1,61,110.13Z"/><path class="cls-7" d="M39.6,1.68a40,40,0,0,1,11-1.4c.59.49,1.37.19,2,.34s1.84.07,1.85.84c0,1,1,1.11,1.67,1.52a64.31,64.31,0,0,0-12.64.68c.14-1.7,0-1.77-1.89-1.81A4.63,4.63,0,0,1,39.6,1.68Z"/><path class="cls-8" d="M39.6,1.68a4.63,4.63,0,0,0,2.06.17c1.94,0,2,.11,1.89,1.81A45.06,45.06,0,0,0,37.08,5.3L32.89,6.92a8.61,8.61,0,0,0,1-2.42c-1.59-.16-2.67,1-4.13.82A39.14,39.14,0,0,1,39.6,1.68Z"/><path class="cls-4" d="M56.34,3c-.67-.41-1.65-.5-1.67-1.52,0-.77-1.14-.68-1.85-.84s-1.45.15-2-.34L52,.22a7.75,7.75,0,0,0,2.8,0L56.39.3a5.77,5.77,0,0,0,2.86.24,5.51,5.51,0,0,1,2.29.35c-.11.15-.13.33.12.34,1.46.1,2.64.86,4.06,1a.73.73,0,0,1,.71.46c.06.34-.3.4-.64.44A1,1,0,0,0,64.7,4V4c-1.38-.26-2.76-.58-4.16-.77-.84-.11-1.69-.53-2.6-.18Z"/><path class="cls-7" d="M48.74,107.2l-1.91.14,2,.5c1,.27,1.14.55.63,1.33s-1.43.68-2,1.2a15.45,15.45,0,0,1-4.46-.83c2-.26,2.58-1.07,1.64-2.5-.12-.18-.22-.37-.33-.55C45.83,106.66,47.3,106.89,48.74,107.2Z"/><path class="cls-6" d="M64.5,3.55a1,1,0,0,1,1-.89h.07c.33,0,.69-.1.63-.44a.74.74,0,0,0-.71-.46c-1.42-.16-2.6-.92-4-1-.25,0-.24-.19-.13-.34a27.45,27.45,0,0,1,7.47,1.63l.49.3h0A1.15,1.15,0,0,0,70.55,3h.32c0,.4.1.92-.77.76-.63-.11-1.24-.26-1.89-.38S67,3.38,66.9,4l-1-.05Z"/><path class="cls-8" d="M44.36,106.5c.11.18.21.37.33.55.94,1.43.4,2.24-1.64,2.5a1.77,1.77,0,0,1-1.16-.28c-.37-1.11.19-2.21.09-3.31A9.05,9.05,0,0,1,44.36,106.5Z"/><path class="cls-9" d="M21.68,99.5a5.29,5.29,0,0,1,4.08,2.31.9.9,0,0,1-.1.5A20.91,20.91,0,0,1,21.68,99.5Z"/><path class="cls-1" d="M82.65,101.28a1.47,1.47,0,0,1,1.6-1.28h0A3.25,3.25,0,0,1,82.65,101.28Z"/><path class="cls-10" d="M59.05.5A5.77,5.77,0,0,1,56.19.26,6,6,0,0,1,59.05.5Z"/><path class="cls-5" d="M25.66,102.5a2.22,2.22,0,0,1,.1-.5h.84c.39.24.35.6.38.94l-.34.21Z"/><path class="cls-10" d="M54.63.21a7.7,7.7,0,0,1-2.79,0A4.74,4.74,0,0,1,54.63.21Z"/><path class="cls-6" d="M57,110.34a3.35,3.35,0,0,1,2.74,0l-.78.06Z"/><path class="cls-3" d="M70.41,107.65a1.06,1.06,0,0,1,1.2-.72h0A1.36,1.36,0,0,1,70.41,107.65Z"/><path class="cls-7" d="M57,110.34l2,.08a5.79,5.79,0,0,1-2,.18A.46.46,0,0,1,57,110.34Z"/><path class="cls-3" d="M70.44,3.44a1.15,1.15,0,0,1-1.25-.65c.42.06,1-.17,1.25.33A1.71,1.71,0,0,0,70.44,3.44Z"/><path class="cls-9" d="M17.48,96.06c.76,0,.95.31.92.83A1.75,1.75,0,0,1,17.48,96.06Z"/><path class="cls-1" d="M70.92,3V2.64A2.61,2.61,0,0,1,72.46,3H71.22Z"/><path class="cls-9" d="M19.44,97.75a.67.67,0,0,1,.76.48v.14A1,1,0,0,1,19.44,97.75Z"/><path class="cls-3" d="M72.76,106.59l.46-.28C73.12,106.5,73.15,106.74,72.76,106.59Z"/><path class="cls-3" d="M72,106.91l.48-.29C72.34,106.77,72.36,107.07,72,106.91Z"/><path class="cls-8" d="M29.22,5.6c-.1.31-.38.37-.73.35A.83.83,0,0,1,29.22,5.6Z"/><path class="cls-9" d="M21,99c.34,0,.61.07.52.42C21.29,99.37,21.07,99.26,21,99Z"/><path class="cls-9" d="M18.5,97c.44-.06.51.16.53.43A.61.61,0,0,1,18.5,97Z"/><path class="cls-9" d="M19.05,97.43a.35.35,0,0,1,.36.31A.35.35,0,0,1,19.05,97.43Z"/><path class="cls-9" d="M20.21,98.39a.36.36,0,0,1,.37.3A.36.36,0,0,1,20.21,98.39Z"/><path class="cls-9" d="M20.62,98.71A.36.36,0,0,1,21,99a.34.34,0,0,1-.38-.29Z"/><path class="cls-1" d="M84.63,100l.44-.34A.56.56,0,0,1,84.63,100Z"/><path class="cls-8" d="M29.66,5.36a.37.37,0,0,1-.41.23A.37.37,0,0,1,29.66,5.36Z"/><path class="cls-7" d="M55.39,111c.13-.14.25-.16.39,0Z"/><path class="cls-1" d="M85.43,99.36l.42-.35A.53.53,0,0,1,85.43,99.36Z"/><path class="cls-3" d="M69.25,2.81l-.49-.3A.44.44,0,0,1,69.25,2.81Z"/><path class="cls-1" d="M85,99.67l.44-.34A.56.56,0,0,1,85,99.67Z"/><path class="cls-3" d="M78.34,86.6c-3,.12-6.08.08-9.11,0a1.23,1.23,0,0,1,.88-.28,5.29,5.29,0,0,0,2.1-.27c1-.45,1.1-.83.13-1.33-.49-.26-1.15-.35-1.42-.8a2.61,2.61,0,0,0-2.36-1.16c-.39,0-.79-.19-.69-.6s.5-.26.81-.29c.95-.12,2,.23,2.85-.28a19.79,19.79,0,0,1,3.61,0c.06.39-.16,1,.41,1.09,1.33.22,1.47,1,1.68,1.82S78.42,85.74,78.34,86.6Z"/><path class="cls-3" d="M83,13.09a76.16,76.16,0,0,0-10.6-6.15A2.69,2.69,0,0,0,70,6H70c-.25-.56-.93-.68-1.5-.87a5.34,5.34,0,0,1-1.69-.67c.12-.64.66-.72,1.31-.59s1.24.27,1.89.38c.87.16.74-.36.77-1.25h1.18c.08.69.14.94.4,1a1.8,1.8,0,0,1,1.59,1.78,1.76,1.76,0,0,0,1.16,1.54A26.35,26.35,0,0,0,78.82,9c1.48.48,2.38,1.76,3.57,2.64A1.34,1.34,0,0,1,83,13.09Z"/><path class="cls-9" d="M34,86.23a9.24,9.24,0,0,1-2.35,0c-.32-.18-1.11.77-1.11.77H21.43s-.79-1-1.11-.79c-1.44.05-2.89.12-4.33.14-.77,0-1.07.28-1,.87-1.1-1.51-2.22-3-3.29-4.52a4.27,4.27,0,0,1-.24-.7H32.37c.75,0,1.32.09,1.29.84a1.84,1.84,0,0,0,1.44,1.81c.79.29.71.81.67,1.35h-.1s-1.16-.15-1.6.21Z"/><path class="cls-9" d="M26.72,98.3l7.07,4.42c-.37.09-.87.14-.74.56.21.74-.28.9-.95.72a5.68,5.68,0,0,1-2.49-.8c-.67-.61-1.73-.34-2.61-.42a1,1,0,0,0-.37-.94A5.94,5.94,0,0,1,26.72,98.3Z"/><path class="cls-9" d="M25.82,94.67c-.85.37-2-.16-2.7.54-1-1-2.49-1.67-3.26-2.86a35.4,35.4,0,0,1,5.45-.22c-.95.49-2,.08-3.09.36a6,6,0,0,0,3,.49c.16,0,.7-.07.42.2C25,93.79,26.11,94.16,25.82,94.67Z"/><path class="cls-11" d="M7.36,74.23a.5.5,0,0,1,.24.65A.52.52,0,0,1,7.36,74.23Z"/><path class="cls-9" d="M25.09,97a.31.31,0,0,1,.34.24v0a.3.3,0,0,1-.34-.19A.14.14,0,0,1,25.09,97Z"/><path class="cls-9" d="M25.48,97.36a.3.3,0,0,1,.35.22v0a.31.31,0,0,1-.35-.22Z"/><path class="cls-9" d="M26.3,98a.3.3,0,0,1,.34.19v0C26.41,98.26,26.3,98.18,26.3,98Z"/><path class="cls-5" d="M21.9,13.66c0,.22-.2.34-.5.29A.54.54,0,0,1,21.9,13.66Z"/><path class="cls-12" d="M5.1,65.5l.08.74C4.9,66,4.77,65.72,5.1,65.5Z"/><path class="cls-12" d="M5.8,68.86l.17.4A.29.29,0,0,1,5.8,68.86Z"/><path class="cls-11" d="M7.37,73.32a1.14,1.14,0,0,1,.1.19v.1a.85.85,0,0,1-.14-.19A.14.14,0,0,1,7.37,73.32Z"/><path class="cls-11" d="M6.75,72.05a.18.18,0,0,1,.08.26.85.85,0,0,1-.16-.17Z"/><path class="cls-9" d="M24.67,96.72A.33.33,0,0,1,25,97v0C24.8,97,24.67,96.91,24.67,96.72Z"/><path class="cls-9" d="M25.89,97.67a.29.29,0,0,1,.34.21v.05C26,97.94,25.89,97.85,25.89,97.67Z"/><path class="cls-4" d="M57,94.47c-3.68.11-7.36,0-11-.2-1.24-.54-2.56-1.11-2.39-2.55a60,60,0,0,1,6.29,0c1.43.53,3,.21,4.46.48.08,0,.19-.13.28-.2h.79a1.27,1.27,0,0,0,.9,1.19A1.23,1.23,0,0,1,57,94.47Z"/><path class="cls-6" d="M57,94.78a1.23,1.23,0,0,0-.7-1.28,1.26,1.26,0,0,1-.88-1.13,81.77,81.77,0,0,1,9.39.32c2,.23,2.66.65,2.87,2.2a49.34,49.34,0,0,1-5.16,0,4.24,4.24,0,0,0-3.17,0Z"/><path class="cls-6" d="M54.6,92.31c-.09.07-.2.21-.28.2-1.46-.27-3,0-4.46-.48a31.25,31.25,0,0,1,4.74,0Z"/><path class="cls-1" d="M78.75,92.17a8.57,8.57,0,0,1,3,0A8.57,8.57,0,0,1,78.75,92.17Z"/><path class="cls-7" d="M65.71,4.65l-8-1.57c.9-.35,1.75.07,2.6.18,1.39.19,2.77.51,4.15.77l1.25.36Z"/><path class="cls-4" d="M65.94,4.65V4.39l1,.05a5.25,5.25,0,0,0,1.69.67c.57.19,1.24.31,1.49.87A31.51,31.51,0,0,1,65.94,4.65Z"/><path class="cls-7" d="M43.63,36.65l-.85.1a.64.64,0,0,0-.66.25H41.2c-.67,0-1.28.42-2,.16-2.18-.77-4.29-1.62-5.49-3.39a17,17,0,0,1-3.27-7c-.22-1.44-1-2.91,0-4.41a1.15,1.15,0,0,0-.54-1.74L29.77,20h1.38l5.61-1.3,1.73-.08c.67.33,1.56.16,2.18.61-2.55.64-2.64.86-2.72,3a10.14,10.14,0,0,0,.84,2.64c.52,2.17.69,2.28,3.28,2.29-.28,1-.6,2-.81,3"/><path class="cls-3" d="M78,72.65c-3.79-4.07-7.51-8.14-10.94-12.4-2.42-3-5.24-5.79-7.87-8.67A14.83,14.83,0,0,1,57,49.07c.49-.12,1.05.43,1.47,0s.1-.81-.25-1.15a1.83,1.83,0,0,1-.36-1.53,84,84,0,0,1,13.27,15A15.7,15.7,0,0,1,72.69,64,29.81,29.81,0,0,0,77,70.11c.37.45.75,1.08,1.71.66.67.57,1.26,0,1.92-.09.51.53,1.27.31,1.85.32H92.93c1.41,0,1.43,0,1.27,1.16A27.38,27.38,0,0,1,93.69,76c-.19.7-.51,1-1.42,1H83.42a1.19,1.19,0,0,1-1.07-.55c-.81-1.07-1.63-2.12-2.45-3.19-.18-.23-.19-.65-.75-.38h0c.36-.53-.19-.71-.6-.78s-.18.32-.26.52Z"/><path class="cls-6" d="M41.59,37h.54a1.11,1.11,0,0,0,.17,1.33v.11l.13.08a1.52,1.52,0,0,0,.87,1.29c.13.49,1.15,0,1.13.65-.24.31-.5.61-.71.92A6.15,6.15,0,0,1,37.85,44c-.6.08-1-.36-1.64-.36a10,10,0,0,1-3.86-1,30.81,30.81,0,0,1-5.53-3.23,7,7,0,0,1-3.24-4.22,20.27,20.27,0,0,1,0-5.82,7.67,7.67,0,0,1,1.24-3.44c.55-.81,1.54-1.33,1.94-2.13a4.37,4.37,0,0,1,2.94-2.11,1.18,1.18,0,0,1-.24,1.06,3.59,3.59,0,0,0-.93,3,1.2,1.2,0,0,1-.13.61,3.66,3.66,0,0,0,.3,3.23,17,17,0,0,0,1,2.05c1.25,1.84,1.68,3.91,3.09,5.74s3.81,2.82,5.75,4.16a1.35,1.35,0,0,0,2.25-1.08,2.75,2.75,0,0,1,.63-2.24C41.77,37.94,41.56,37.4,41.59,37Z"/><path class="cls-1" d="M72.19,57.66a6.63,6.63,0,0,1,1.38-3.22,95.82,95.82,0,0,1,6.37-8c2.74-3.22,5.53-6.42,8.3-9.64,2.6,1.66,12.07,14,12.44,16.22-1,.17-1.39-.43-1.88-.87a49.65,49.65,0,0,1-5.92-6.71,38.23,38.23,0,0,0-3.38-4.21,46.64,46.64,0,0,0-4.88,5.3,55.55,55.55,0,0,1-10.55,10A4.69,4.69,0,0,1,72.19,57.66Z"/><path class="cls-2" d="M26.34,56a3.11,3.11,0,0,0,1.06,1.11l7.1,8.7c.31.51.61,1,.91,1.54a.57.57,0,0,0,.68.27l.1,0,1,.5c-.22.82-1.35,1.22-1.51,2.07a66.27,66.27,0,0,1-7.22-7.51c-1.53-1.71-3-3.47-4.46-5.2-.3-.33-.52-.74-1.06-.9a2.32,2.32,0,0,0-.92,1,111,111,0,0,1-7.12,9.12A24.17,24.17,0,0,1,11.25,70a6,6,0,0,1-1.06.69C9.42,71,9,70.7,9,70a4.47,4.47,0,0,1,.87-1.76A56.74,56.74,0,0,1,15,61.3,3.63,3.63,0,0,0,16,60c.19,0,.33-.14.31-.29v0c1.66-1.83,3.31-3.66,4.77-5.6,1.61-1.67,1.61-1.66,3.33.1.56.57,1.15,1.12,1.72,1.69V56Z"/><path class="cls-6" d="M42.38,77.06a12,12,0,0,1-2.81,0,2.05,2.05,0,0,1,.78-3.17A42.11,42.11,0,0,0,46,68.63c1.5-1.5,2.87-3.09,4.35-4.6.61-.63.83-1.58,1.49-2a34,34,0,0,1,3.3-2,2.19,2.19,0,0,1,2.62.26,1.38,1.38,0,0,1,.39.89c.36,1.85-.12,2.56-2.35,3.53-1,.44-2.08,1-2.24,1.89-.24,1.29-1.83,1.92-2,3.16,0,.16-.33.31-.54.44a8.55,8.55,0,0,0-3.6,3.68,3.42,3.42,0,0,1-3.33,2.29C43.45,76.22,42.53,76.27,42.38,77.06Z"/><path class="cls-3" d="M42.38,77c.15-.79,1.07-.84,1.67-.84a3.38,3.38,0,0,0,3.33-2.29A8.55,8.55,0,0,1,51,70.14c.21-.13.51-.28.54-.44.19-1.24,1.78-1.87,2-3.16.16-.85,1.24-1.45,2.24-1.89,2.23-1,2.71-1.68,2.35-3.53a1.74,1.74,0,0,0-1.91-1.47,2.17,2.17,0,0,0-1.1.32,34,34,0,0,0-3.3,2c-.66.38-.88,1.33-1.49,2-1.48,1.51-2.85,3.1-4.35,4.6a42.11,42.11,0,0,1-5.63,5.26A2.05,2.05,0,0,0,39.57,77h-3c-.31-.53.1-.8.34-1.09a61,61,0,0,1,5.31-5.5c3.61-3.57,7.08-7.22,10.54-10.88a36.4,36.4,0,0,1,2.75-2.48c.51-.43.93-.54,1.42,0,1,1.22,2.09,2.43,3.19,3.62a1,1,0,0,1,0,1.61l-.08.06c-1.05.95-2,2-3,2.94A80.33,80.33,0,0,0,47.58,76a2.31,2.31,0,0,1-2.49,1.07C44.19,77,43.29,76.94,42.38,77Z"/><path class="cls-4" d="M66.74,87c-3.78.12-7.55,0-11.33,0a.9.9,0,0,0-1.09-.13.51.51,0,0,0-.16.13H52.49a5.61,5.61,0,0,1,.24-1,.71.71,0,0,0-.37-1,18.75,18.75,0,0,0-8.72-2.59c.5-.55,1.26-.37,1.92-.38,2.36,0,4.71,0,7.06-.05a4.39,4.39,0,0,0,2.22-.2c3.4-.07,6.78-.19,10.17-.06a4.17,4.17,0,0,1-2.42.27H57.23v.34a7.5,7.5,0,0,1,5.55,1.36,4.62,4.62,0,0,0,1.73.91C66.65,85.18,66.65,85.18,66.74,87Z"/><path class="cls-1" d="M81.08,70.42c-.63,0-1.24.64-1.89.08.65-.52.41-1.2.44-1.81V64.58c0-.64.2-1,1.09-1,4.15.05,8.28.07,12.44.09.78,0,1.14.15,1.25.86C94.7,67,94.73,67,91.72,67s-5.91,0-8.86,0c-.94,0-1.33.21-1.24,1A4.57,4.57,0,0,1,81.08,70.42Z"/><path class="cls-6" d="M58.17,46.5a1.76,1.76,0,0,0,.35,1.5c.34.34.61.76.25,1.14s-1-.11-1.45,0h0c-.11-.13.26-.57-.37-.37a.9.9,0,0,0-1.09,0l0,0a1.69,1.69,0,0,0-1.46.66c-.76,1-1.43,1.94-2.1,2.93-.1.15,0,.4,0,.61h0c-1,0-.91.45-.82,1h0a.55.55,0,0,0-.47.34l.06-.05a.54.54,0,0,0-.41.7h0c-.21,0-.35.07-.19.26a87.47,87.47,0,0,1-6,6.81c-.28.32-.43.76-.9,1A1.85,1.85,0,0,1,44,61.26a28.74,28.74,0,0,0,3.1-4.68c.58-.89-.12-1-.92-1,2.69-3.23,5.8-6.21,8.65-9.34l.54-.65,1-.76A6.1,6.1,0,0,1,58.17,46.5Z"/><path class="cls-9" d="M18.64,72h4.54c1,1,1.25,1.23,1.18,2A9.42,9.42,0,0,0,24.49,76c.1.65-.11,1-1,1-3.16-.1-6.31-.18-9.47-.24a1.19,1.19,0,0,1-1.35-.9.92.92,0,0,1,0-.16,5.21,5.21,0,0,1,0-.79c0-1.85.13-1.92,2.49-1.92h3.55Z"/><path class="cls-1" d="M88.43,60h-9.2c-.79-.06-1.42-.06-1.37-1a1.77,1.77,0,0,1,1.42-2H96.45c.91.39,1.25.62,1.25,1.39,0,1.16,0,1.21-1.32,1.26Z"/><path class="cls-1" d="M29.28,21.2a4.37,4.37,0,0,0-2.94,2.11c-.4.8-1.39,1.32-1.94,2.13a7.67,7.67,0,0,0-1.24,3.44,20.27,20.27,0,0,0,0,5.82,7,7,0,0,0,3.24,4.22,30.81,30.81,0,0,0,5.53,3.23,10,10,0,0,0,3.86,1c.63,0,1,.44,1.64.36a17,17,0,0,1-10.23-2.3c-10.29-6.55-6.78-17,2.19-21.06a4.56,4.56,0,0,1,.75-.18,3.09,3.09,0,0,0,.16.65Z"/><path class="cls-8" d="M42,26.69c-2.49,0-2.69-.12-3.18-2.23A9.65,9.65,0,0,1,38,21.89c.08-2.05.19-2.27,2.66-2.89h1.74c1.14.35,2.73.43,3.22,1.27s-.87,1.62-1.32,2.47C43.56,24.08,42.75,25.38,42,26.69Z"/><path class="cls-6" d="M56,75.75V74h9.38a5.41,5.41,0,0,0,2.4.24c.53,0,1,.06,1.28.5.36.7-.16,1.31-.4,1.93s-.85.33-1.33.33H59.53c-1.43,0-2.4-.21-2.93-1.4C56.35,75.09,56.23,75.77,56,75.75Z"/><path class="cls-5" d="M36.38,86.4c0-.59.14-1.17-.73-1.48a2,2,0,0,1-1.58-2c0-.82-.6-.92-1.42-.92H23a10.75,10.75,0,0,1,1.14-.14c5.44-.08,10.88-.15,16.31,0,.82.43,1.78,0,2.68.3-.46.4-1.73.17-1.38,1.13s0,2.19.57,3.22C40.35,86.56,38.36,86.53,36.38,86.4Z"/><path class="cls-6" d="M66.22,86.75c-.09-1.71-.09-1.71-2.13-2.29a4.32,4.32,0,0,1-1.63-.86,7.1,7.1,0,0,0-5.23-1.28V82h5.05a3.87,3.87,0,0,0,2.28-.25q3.34-.14,6.71,0c-.89.51-1.91.16-2.85.28-.31,0-.72,0-.81.29s.3.6.68.6a2.62,2.62,0,0,1,2.37,1.16c.27.45.93.54,1.42.8,1,.5.9.88-.13,1.33a5.29,5.29,0,0,1-2.1.27,1.21,1.21,0,0,0-.88.28A13.3,13.3,0,0,1,66.22,86.75Z"/><path class="cls-4" d="M70.64,28c.17.6.33,1.18.49,1.77.31,1.06.46,1.17,1.8,1.22h2.82a10.11,10.11,0,0,1-3.38,1.58c-.75.19-.87.51-.69,1s.41,1.18.63,1.86a2.21,2.21,0,0,1-1.47-.71c-1.52-1-1.67-1-3.23-.1A3.87,3.87,0,0,1,67,35H66.7c-.26-.8.53-1.54.29-2.35s-1.23-1.25-2.07-1.88a3.8,3.8,0,0,1,2.19-.31,2.15,2.15,0,0,0,2.37-1.21A10,10,0,0,1,70.25,28Z"/><path class="cls-3" d="M93.61,53.23c-3-.51-5.79.18-8.57-.73,1.41-1.83,1.61-4.17,4.18-5.51A49.23,49.23,0,0,1,93.61,53.23Z"/><path class="cls-3" d="M57.87,70.19a35.38,35.38,0,0,1,5.27-4.68A.74.74,0,0,1,64,65.4a.53.53,0,0,1,.14.11l5,4.52C65.21,70.2,61.74,70.14,57.87,70.19Z"/><path class="cls-4" d="M46.26,56c.8.06,1.51.14.92,1a28.74,28.74,0,0,1-3.1,4.68,1.85,1.85,0,0,0-.48,1.77,10.34,10.34,0,0,1-2.22,2.37c-.27-.42-.58-.75-1.24-.3a2.55,2.55,0,0,0-1.68-.32,78.09,78.09,0,0,1,7.18-8.58.69.69,0,0,0,.7-.62Z"/><path class="cls-9" d="M26.43,68.77a17.38,17.38,0,0,1-6.78-.13,15.46,15.46,0,0,1,3-4c.33-.4.75-.35,1.14,0a5.08,5.08,0,0,1,.95,1.38A11.78,11.78,0,0,0,26.43,68.77Z"/><path class="cls-4" d="M72.71,22.17c.43-2-1.34-2.08-2.49-2.56.48-.73,1.65-.31,2-.94s-.16-1.1,0-1.67h.22c1.16,1.61,1.16,1.61,2.79.19a2,2,0,0,1,.32-.18c.1,0,.29.11.29.16-.11,1.57-.13,1.57,1.78,2,.45.09,1,.14,1.08.53s-.5.69-1,.83a2.32,2.32,0,0,1-.55.17A5.64,5.64,0,0,0,72.71,22.17Z"/><path class="cls-8" d="M42.32,86.31c-.55-1-.2-2.17-.58-3.22s.93-.73,1.39-1.13c-.9-.27-1.86.13-2.68-.3,5-.12,9.87-.16,14.81,0a4.31,4.31,0,0,1-2.11.19c-2.21,0-4.43,0-6.65.05-.62,0-1.33-.16-1.81.36-.2.32-.93.13-.95.67a8.21,8.21,0,0,1,2.94,3.51A28.84,28.84,0,0,1,42.32,86.31Z"/><path class="cls-3" d="M56.4,75.8c.25,0,.4-.68.63-.14.53,1.23,1.56,1.49,3,1.45,2.69-.07,5.37,0,8.07,0,.5,0,1.25.15,1.39-.34s.78-1.26.41-2c-.24-.46-.78-.49-1.32-.52A5.49,5.49,0,0,1,66.13,74c1.64,0,3.28,0,5-.09.92,0,1.09.31,1,.94v2.42c-.36.37-.92.18-1.42.18-4.13,0-8.27,0-12.44.07C56.19,77.5,56,77.77,56.4,75.8Z"/><path class="cls-6" d="M40.18,65c.62-.45.93-.12,1.24.3-1.48,1.57-2.77,3.25-4.42,4.73-.31.27-.61.62-1,.11.16-.85,1.24-1.25,1.49-2.07C38.87,67.4,39.44,66.16,40.18,65Z"/><path class="cls-4" d="M77.93,72h.33c.3.07.36.6.85.26h0c-.59.23-.15.44,0,.65.78,1.56,2,3,2.37,5-1.31-1-1.24-2.13-1.9-3.06S78.49,72.94,77.93,72Z"/><path class="cls-3" d="M52.31,53.05c0-.21-.13-.46,0-.61.67-1,1.34-2,2.1-2.93a1.68,1.68,0,0,1,1.46-.66A31.18,31.18,0,0,1,52.31,53.05Z"/><path class="cls-4" d="M36.52,18.74,31.1,20v-.63A12.87,12.87,0,0,1,36.52,18.74Z"/><path class="cls-1" d="M98.68,64.5a.58.58,0,0,1-.57.51.7.7,0,0,1-.81-.5c-.09-.34.2-.48.55-.48S98.59,64.06,98.68,64.5Z"/><path class="cls-4" d="M70,6a2.69,2.69,0,0,1,2.31.94A6.22,6.22,0,0,1,70,6Z"/><path class="cls-3" d="M51.51,54c-.09-.52-.14-1,.82-1A2,2,0,0,1,51.51,54Z"/><path class="cls-1" d="M31,20h-.86c.13-.31.52-.29.81-.39C30.92,19.72,30.93,19.86,31,20Z"/><path class="cls-3" d="M57,48.83c.64-.2.26.24.37.37A.47.47,0,0,1,57,48.83Z"/><path class="cls-3" d="M50.72,55c0-.3,0-.57.41-.7C51,54.5,51.11,54.82,50.72,55Z"/><path class="cls-6" d="M31.1,20v-.43c-.15-.15,0-.23,1.25-.19V20Z"/><path class="cls-3" d="M51.06,54.3a.56.56,0,0,1,.48-.34C51.49,54.17,51.31,54.25,51.06,54.3Z"/><path class="cls-12" d="M16.61,59.65c0,.15-.1.28-.28.31h0Z"/><path class="cls-3" d="M50.55,55.18c-.16-.19,0-.24.19-.26Z"/><path class="cls-7" d="M46.68,86.41a8.21,8.21,0,0,0-2.94-3.51c0-.54.75-.35.95-.67a17.71,17.71,0,0,1,8.22,2.44.66.66,0,0,1,.34,1,5.86,5.86,0,0,0-.22.92A49.83,49.83,0,0,1,46.68,86.41Z"/><path class="cls-2" d="M25.82,94.67c.29-.51-.82-.88-.19-1.49.28-.27-.26-.2-.42-.2a6.06,6.06,0,0,1-3-.49c1.05-.28,2.14.13,3.09-.36,3-.17,6.07-.13,9.12-.07-.19.34-.4.67.16.94a1,1,0,0,1,.6,1.42.35.35,0,0,1,0,.08q-3.74-.09-7.47.12A5.47,5.47,0,0,1,25.82,94.67Z"/><path class="cls-5" d="M35.14,94.5A1,1,0,0,0,34.71,93l-.07,0c-.56-.27-.35-.6-.16-.94q4.58-.19,9.14,0c-.17,1.44,1.1,2,2.39,2.55a43.29,43.29,0,0,1-5.58,0Z"/><path class="cls-5" d="M20.32,87c.32-1,.72-1,1.11-1h9.15c.4,0,.79,0,1.11,1Z"/><path class="cls-5" d="M34,86.23a1.34,1.34,0,0,1,1.6,0l0,0A4.47,4.47,0,0,1,34,86.23Z"/><path class="cls-7" d="M54.6,86.55a.86.86,0,0,1,1-.13.7.7,0,0,1,.16.13A2.61,2.61,0,0,1,54.6,86.55Z"/><path class="cls-5" d="M40.18,65c-.74,1.13-1.25,2.37-2.76,3.07l-1-.5a15.42,15.42,0,0,1,2.06-2.89A2.56,2.56,0,0,1,40.18,65Z"/><path class="cls-6" d="M46.34,55.5a.66.66,0,0,1-.61.66A1.18,1.18,0,0,1,46.34,55.5Z"/><path class="cls-11" d="M26.28,56h-.15v-.13A.17.17,0,0,1,26.28,56Z"/><path class="cls-8" d="M46.75,102.88A28.67,28.67,0,0,1,35.25,100c1.53-.55,6.43-.68,9-.29,0,.1-.46.08-.15.29h4.19a1,1,0,0,0,1.22.21,1.09,1.09,0,0,0,.26-.21c1.11-.17,2.13.29,3.22.27,0,.94,1.4.72,1.81,1.4-.7.35-1.85.2-1.78,1.16l-3.56.13A2.48,2.48,0,0,0,46.75,102.88Z"/><path class="cls-4" d="M48.67,100H44.48c-.31-.21.1-.19.15-.29,8.71.06,17.42-.31,26.2.36a23,23,0,0,1-8.62,2.85,73.83,73.83,0,0,1-12.44.18V103l3.54-.13c1.71,0,3.41,0,5.1,0,2,0,2.49-.35,3-1.68-2.21-1.12-4.77-.82-7.19-1.15a1.06,1.06,0,0,0-.87.27c-1.09,0-2.11-.44-3.22-.27Z"/><path class="cls-9" d="M35.14,94.5l5.29.1a119,119,0,0,1-12.81,0Q31.37,94.39,35.14,94.5Z"/><path class="cls-7" d="M49.77,102.91v.1a12.43,12.43,0,0,1-2.73-.22A2.48,2.48,0,0,1,49.77,102.91Z"/><path class="cls-4" d="M59.33,94.8a4.24,4.24,0,0,1,3.17,0A16.79,16.79,0,0,1,59.33,94.8Z"/><path class="cls-4" d="M29.28,21.2l1-.61a1.11,1.11,0,0,1,.52,1.69c-1,1.46-.25,2.89,0,4.3A16.68,16.68,0,0,0,34,33.34c1.17,1.72,3.22,2.55,5.34,3.3.71.25,1.24-.21,1.91-.16,0,.42.11,1-.16,1.23A2.72,2.72,0,0,0,40.43,40,1.35,1.35,0,0,1,38.17,41c-1.94-1.34-4.28-2.25-5.74-4.16s-1.86-3.9-3.09-5.74a17,17,0,0,1-1-2.05,3.63,3.63,0,0,1-.3-3.23,1.46,1.46,0,0,0,.13-.61,3.56,3.56,0,0,1,.93-3A1.19,1.19,0,0,0,29.28,21.2Z"/><path class="cls-7" d="M53,100.22a1.06,1.06,0,0,1,.87-.27c2.42.33,5,0,7.19,1.15-.47,1.33-.93,1.63-2.94,1.68-1.7,0-3.4,0-5.11,0,0-1,1.1-.81,1.8-1.16C54.44,100.94,53,101.16,53,100.22Z"/><path class="cls-7" d="M48.34,100h1.48a1,1,0,0,1-1.22.21A.92.92,0,0,1,48.34,100Z"/></g></g></svg>